<?xml version="1.0" encoding="utf-8"?>
<!-- Generator: Adobe Illustrator 18.1.1, SVG Export Plug-In . SVG Version: 6.00 Build 0)  -->
<svg version="1.1" id="Layer_1" xmlns="http://www.w3.org/2000/svg" xmlns:xlink="http://www.w3.org/1999/xlink" x="0px" y="0px"
	 viewBox="-878.1 242.1 2598 192" enable-background="new -878.1 242.1 2598 192" xml:space="preserve">
<g>
	<g>
		<polygon opacity="0.2" fill="#FFFFFF" enable-background="new    " points="1496.9,419.1 1495.9,419.1 1486.9,419.1 1486.9,418.1 
			1495.9,418.1 1495.9,403.1 1480.9,403.1 1480.9,417.6 1480.9,418.6 1480.9,428.1 1479.9,428.1 1479.9,419.1 1464.9,419.1 
			1464.9,434.1 1479.9,434.1 1480.9,434.1 1495.9,434.1 1495.9,425.1 1496.9,425.1 1496.9,434.1 1511.9,434.1 1511.9,419.1 		"/>
		<polygon opacity="0.1" fill="#FFFFFF" enable-background="new    " points="1527.9,386.6 1527.9,385.6 1527.9,377.1 1528.9,377.1 
			1528.9,386.1 1543.9,386.1 1543.9,371.1 1528.9,371.1 1527.9,371.1 1518.9,371.1 1518.9,370.1 1527.9,370.1 1527.9,355.1 
			1512.9,355.1 1512.9,369.6 1512.9,370.6 1512.9,386.1 1521.9,386.1 1521.9,387.1 1512.9,387.1 1512.9,402.1 1527.9,402.1 		"/>
		<polygon opacity="0.2" fill="#FFFFFF" enable-background="new    " points="1672.9,419.1 1671.9,419.1 1662.9,419.1 1662.9,418.1 
			1671.9,418.1 1671.9,403.1 1656.9,403.1 1656.9,417.6 1656.9,418.6 1656.9,428.1 1655.9,428.1 1655.9,419.1 1640.9,419.1 
			1640.9,434.1 1655.9,434.1 1656.9,434.1 1671.9,434.1 1671.9,425.1 1672.9,425.1 1672.9,434.1 1687.9,434.1 1687.9,419.1 		"/>
		<polygon opacity="0.1" fill="#FFFFFF" enable-background="new    " points="1320.9,419.1 1319.9,419.1 1310.9,419.1 1310.9,418.1 
			1319.9,418.1 1319.9,403.1 1304.9,403.1 1304.9,417.6 1304.9,418.6 1304.9,428.1 1303.9,428.1 1303.9,419.1 1288.9,419.1 
			1288.9,434.1 1303.9,434.1 1304.9,434.1 1319.9,434.1 1319.9,425.1 1320.9,425.1 1320.9,434.1 1335.9,434.1 1335.9,419.1 		"/>
		<polygon opacity="0.2" fill="#FFFFFF" enable-background="new    " points="1416.9,419.1 1416.9,434.1 1431.9,434.1 1431.9,418.6 
			1431.9,417.6 1431.9,403.1 1422.9,403.1 1422.9,402.1 1431.9,402.1 1431.9,386.6 1431.9,385.6 1431.9,371.1 1416.9,371.1 
			1416.9,386.1 1425.9,386.1 1425.9,387.1 1416.9,387.1 1416.9,401.6 1416.9,402.6 1416.9,418.1 1425.9,418.1 1425.9,419.1 		"/>
		<polygon opacity="0.2" fill="#FFFFFF" enable-background="new    " points="1432.9,403.1 1432.9,418.1 1447.9,418.1 1447.9,402.6 
			1447.9,401.6 1447.9,387.1 1438.9,387.1 1438.9,386.1 1447.9,386.1 1447.9,370.6 1447.9,369.6 1447.9,355.1 1432.9,355.1 
			1432.9,370.1 1441.9,370.1 1441.9,371.1 1432.9,371.1 1432.9,385.6 1432.9,386.6 1432.9,402.1 1441.9,402.1 1441.9,403.1 		"/>
		<polygon opacity="0.2" fill="#FFFFFF" enable-background="new    " points="1240.9,419.1 1240.9,434.1 1255.9,434.1 1255.9,418.6 
			1255.9,417.6 1255.9,403.1 1246.9,403.1 1246.9,402.1 1255.9,402.1 1255.9,386.6 1255.9,385.6 1255.9,371.1 1240.9,371.1 
			1240.9,386.1 1249.9,386.1 1249.9,387.1 1240.9,387.1 1240.9,401.6 1240.9,402.6 1240.9,418.1 1249.9,418.1 1249.9,419.1 		"/>
		<polygon opacity="0.2" fill="#FFFFFF" enable-background="new    " points="1575.9,387.1 1560.9,387.1 1560.9,402.1 1575.9,402.1 
			1576.9,402.1 1591.9,402.1 1591.9,393.1 1592.9,393.1 1592.9,402.1 1607.9,402.1 1608.9,402.1 1623.9,402.1 1623.9,387.1 
			1608.9,387.1 1608.9,396.1 1607.9,396.1 1607.9,387.1 1592.9,387.1 1591.9,387.1 1576.9,387.1 1576.9,396.1 1575.9,396.1 		"/>
		<polygon opacity="0.2" fill="#FFFFFF" enable-background="new    " points="1575.9,419.1 1560.9,419.1 1560.9,434.1 1575.9,434.1 
			1576.9,434.1 1591.9,434.1 1591.9,425.1 1592.9,425.1 1592.9,434.1 1607.9,434.1 1608.9,434.1 1623.9,434.1 1623.9,419.1 
			1608.9,419.1 1608.9,428.1 1607.9,428.1 1607.9,419.1 1592.9,419.1 1591.9,419.1 1576.9,419.1 1576.9,428.1 1575.9,428.1 		"/>
		<polygon opacity="0.1" fill="#FFFFFF" enable-background="new    " points="1415.9,418.1 1415.9,403.1 1400.9,403.1 1400.9,412.1 
			1399.9,412.1 1399.9,403.1 1384.9,403.1 1384.9,418.1 1394.9,418.1 1394.9,419.1 1384.9,419.1 1384.9,434.1 1399.9,434.1 
			1399.9,425.1 1400.9,425.1 1400.9,434.1 1415.9,434.1 1415.9,419.1 1406.9,419.1 1406.9,418.1 		"/>
		<polygon opacity="0.1" fill="#FFFFFF" enable-background="new    " points="1591.9,370.1 1591.9,355.1 1576.9,355.1 1576.9,364.1 
			1575.9,364.1 1575.9,355.1 1560.9,355.1 1560.9,370.1 1570.9,370.1 1570.9,371.1 1560.9,371.1 1560.9,386.1 1575.9,386.1 
			1575.9,377.1 1576.9,377.1 1576.9,386.1 1591.9,386.1 1591.9,371.1 1582.9,371.1 1582.9,370.1 		"/>
		<polygon opacity="0.2" fill="#FFFFFF" enable-background="new    " points="1287.9,418.1 1287.9,403.1 1272.9,403.1 1272.9,412.1 
			1271.9,412.1 1271.9,403.1 1256.9,403.1 1256.9,418.1 1266.9,418.1 1266.9,419.1 1256.9,419.1 1256.9,434.1 1271.9,434.1 
			1271.9,425.1 1272.9,425.1 1272.9,434.1 1287.9,434.1 1287.9,419.1 1278.9,419.1 1278.9,418.1 		"/>
		<polygon opacity="0.1" fill="#FFFFFF" enable-background="new    " points="1464.9,403.1 1463.9,403.1 1448.9,403.1 1448.9,418.1 
			1457.9,418.1 1457.9,419.1 1448.9,419.1 1447.9,419.1 1432.9,419.1 1432.9,434.1 1447.9,434.1 1447.9,425.1 1448.9,425.1 
			1448.9,434.1 1463.9,434.1 1463.9,418.6 1463.9,417.6 1463.9,409.1 1464.9,409.1 1464.9,418.1 1479.9,418.1 1479.9,403.1 		"/>
		<polygon opacity="0.2" fill="#FFFFFF" enable-background="new    " points="1384.9,369.6 1384.9,370.6 1384.9,386.1 1399.9,386.1 
			1399.9,377.1 1400.9,377.1 1400.9,385.6 1400.9,386.6 1400.9,402.1 1415.9,402.1 1415.9,387.1 1406.9,387.1 1406.9,386.1 
			1415.9,386.1 1415.9,371.1 1400.9,371.1 1399.9,371.1 1390.9,371.1 1390.9,370.1 1399.9,370.1 1399.9,355.1 1384.9,355.1 		"/>
		<polygon opacity="0.2" fill="#FFFFFF" enable-background="new    " points="1511.9,403.1 1512.9,403.1 1527.9,403.1 1527.9,418.1 
			1518.9,418.1 1518.9,419.1 1527.9,419.1 1528.9,419.1 1543.9,419.1 1543.9,434.1 1528.9,434.1 1528.9,425.1 1527.9,425.1 
			1527.9,434.1 1512.9,434.1 1512.9,418.6 1512.9,417.6 1512.9,409.1 1511.9,409.1 1511.9,418.1 1496.9,418.1 1496.9,403.1 		"/>
		<polygon opacity="0.1" fill="#FFFFFF" enable-background="new    " points="1687.9,403.1 1688.9,403.1 1703.9,403.1 1703.9,418.1 
			1694.9,418.1 1694.9,419.1 1703.9,419.1 1704.9,419.1 1719.9,419.1 1719.9,434.1 1704.9,434.1 1704.9,425.1 1703.9,425.1 
			1703.9,434.1 1688.9,434.1 1688.9,418.6 1688.9,417.6 1688.9,409.1 1687.9,409.1 1687.9,418.1 1672.9,418.1 1672.9,403.1 		"/>
		<polygon opacity="0.2" fill="#FFFFFF" enable-background="new    " points="1319.9,385.6 1319.9,386.6 1319.9,402.1 1304.9,402.1 
			1304.9,393.1 1303.9,393.1 1303.9,401.6 1303.9,402.6 1303.9,418.1 1288.9,418.1 1288.9,403.1 1297.9,403.1 1297.9,402.1 
			1288.9,402.1 1288.9,387.1 1303.9,387.1 1304.9,387.1 1313.9,387.1 1313.9,386.1 1304.9,386.1 1304.9,371.1 1319.9,371.1 		"/>
		<polygon opacity="0.1" fill="#FFFFFF" enable-background="new    " points="1495.9,369.6 1495.9,370.6 1495.9,386.1 1480.9,386.1 
			1480.9,377.1 1479.9,377.1 1479.9,385.6 1479.9,386.6 1479.9,402.1 1464.9,402.1 1464.9,387.1 1473.9,387.1 1473.9,386.1 
			1464.9,386.1 1464.9,371.1 1479.9,371.1 1480.9,371.1 1489.9,371.1 1489.9,370.1 1480.9,370.1 1480.9,355.1 1495.9,355.1 		"/>
		<polygon opacity="0.2" fill="#FFFFFF" enable-background="new    " points="1495.9,402.1 1496.9,402.1 1511.9,402.1 1511.9,387.1 
			1502.9,387.1 1502.9,386.1 1511.9,386.1 1511.9,370.6 1511.9,369.6 1511.9,355.1 1496.9,355.1 1496.9,370.1 1505.9,370.1 
			1505.9,371.1 1496.9,371.1 1496.9,385.6 1496.9,386.6 1496.9,396.1 1495.9,396.1 1495.9,387.1 1480.9,387.1 1480.9,402.1 		"/>
		<polygon opacity="0.1" fill="#FFFFFF" enable-background="new    " points="1223.9,434.1 1224.9,434.1 1239.9,434.1 1239.9,419.1 
			1230.9,419.1 1230.9,418.1 1239.9,418.1 1239.9,402.6 1239.9,401.6 1239.9,387.1 1224.9,387.1 1224.9,402.1 1233.9,402.1 
			1233.9,403.1 1224.9,403.1 1224.9,417.6 1224.9,418.6 1224.9,428.1 1223.9,428.1 1223.9,419.1 1208.9,419.1 1208.9,434.1 		"/>
		<polygon opacity="0.2" fill="#FFFFFF" enable-background="new    " points="1384.9,387.1 1383.9,387.1 1368.9,387.1 1368.9,402.1 
			1377.9,402.1 1377.9,403.1 1368.9,403.1 1368.9,417.6 1368.9,418.6 1368.9,434.1 1383.9,434.1 1383.9,419.1 1374.9,419.1 
			1374.9,418.1 1383.9,418.1 1383.9,402.6 1383.9,401.6 1383.9,393.1 1384.9,393.1 1384.9,402.1 1399.9,402.1 1399.9,387.1 		"/>
		<polygon opacity="0.1" fill="#FFFFFF" enable-background="new    " points="1639.9,418.6 1639.9,417.6 1639.9,403.1 1624.9,403.1 
			1624.9,412.1 1623.9,412.1 1623.9,403.1 1608.9,403.1 1607.9,403.1 1592.9,403.1 1592.9,418.1 1607.9,418.1 1607.9,409.1 
			1608.9,409.1 1608.9,418.1 1623.9,418.1 1624.9,418.1 1633.9,418.1 1633.9,419.1 1624.9,419.1 1624.9,434.1 1639.9,434.1 		"/>
		<polygon opacity="0.2" fill="#FFFFFF" enable-background="new    " points="1544.9,418.6 1544.9,417.6 1544.9,403.1 1559.9,403.1 
			1559.9,412.1 1560.9,412.1 1560.9,403.1 1575.9,403.1 1576.9,403.1 1591.9,403.1 1591.9,418.1 1576.9,418.1 1576.9,409.1 
			1575.9,409.1 1575.9,418.1 1560.9,418.1 1559.9,418.1 1550.9,418.1 1550.9,419.1 1559.9,419.1 1559.9,434.1 1544.9,434.1 		"/>
		<polygon opacity="0.1" fill="#FFFFFF" enable-background="new    " points="1416.9,370.1 1415.9,370.1 1400.9,370.1 1400.9,355.1 
			1409.9,355.1 1409.9,354.1 1400.9,354.1 1400.9,338.6 1400.9,337.6 1400.9,323.1 1415.9,323.1 1415.9,338.1 1406.9,338.1 
			1406.9,339.1 1415.9,339.1 1415.9,353.6 1415.9,354.6 1415.9,364.1 1416.9,364.1 1416.9,355.1 1431.9,355.1 1431.9,370.1 		"/>
		<polygon opacity="0.2" fill="#FFFFFF" enable-background="new    " points="1352.9,434.1 1351.9,434.1 1336.9,434.1 1336.9,419.1 
			1345.9,419.1 1345.9,418.1 1336.9,418.1 1336.9,402.6 1336.9,401.6 1336.9,387.1 1351.9,387.1 1351.9,402.1 1342.9,402.1 
			1342.9,403.1 1351.9,403.1 1351.9,417.6 1351.9,418.6 1351.9,428.1 1352.9,428.1 1352.9,419.1 1367.9,419.1 1367.9,434.1 		"/>
		<polygon opacity="0.2" fill="#FFFFFF" enable-background="new    " points="1208.9,403.1 1207.9,403.1 1192.9,403.1 1192.9,418.1 
			1201.9,418.1 1201.9,419.1 1192.9,419.1 1191.9,419.1 1176.9,419.1 1176.9,434.1 1191.9,434.1 1191.9,425.1 1192.9,425.1 
			1192.9,434.1 1207.9,434.1 1207.9,418.6 1207.9,417.6 1207.9,409.1 1208.9,409.1 1208.9,418.1 1223.9,418.1 1223.9,403.1 		"/>
	</g>
	<g opacity="0.2">
		<polygon fill="#FFFFFF" points="856.9,403.1 855.9,403.1 846.9,403.1 846.9,402.1 855.9,402.1 855.9,387.1 840.9,387.1 
			840.9,402.1 840.9,403.1 840.9,412.1 839.9,412.1 839.9,403.1 824.9,403.1 824.9,418.1 839.9,418.1 840.9,418.1 855.9,418.1 
			855.9,409.1 856.9,409.1 856.9,418.1 871.9,418.1 871.9,403.1 		"/>
		<polygon fill="#FFFFFF" points="1016.9,371.1 1015.9,371.1 1006.9,371.1 1006.9,370.1 1015.9,370.1 1015.9,355.1 1000.9,355.1 
			1000.9,370.1 1000.9,371.1 1000.9,380.1 999.9,380.1 999.9,371.1 984.9,371.1 984.9,386.1 999.9,386.1 1000.9,386.1 1015.9,386.1 
			1015.9,377.1 1016.9,377.1 1016.9,386.1 1031.9,386.1 1031.9,371.1 		"/>
		<polygon fill="#FFFFFF" points="1127.9,387.1 1127.9,386.1 1127.9,377.1 1128.9,377.1 1128.9,386.1 1143.9,386.1 1143.9,371.1 
			1128.9,371.1 1127.9,371.1 1118.9,371.1 1118.9,370.1 1127.9,370.1 1127.9,355.1 1112.9,355.1 1112.9,370.1 1112.9,371.1 
			1112.9,386.1 1121.9,386.1 1121.9,387.1 1112.9,387.1 1112.9,402.1 1127.9,402.1 		"/>
		<polygon opacity="0.5" fill="#FFFFFF" enable-background="new    " points="1160.9,419.1 1159.9,419.1 1150.9,419.1 1150.9,418.1 
			1159.9,418.1 1159.9,403.1 1144.9,403.1 1144.9,418.1 1144.9,419.1 1144.9,428.1 1143.9,428.1 1143.9,419.1 1128.9,419.1 
			1128.9,434.1 1143.9,434.1 1144.9,434.1 1159.9,434.1 1159.9,425.1 1160.9,425.1 1160.9,434.1 1175.9,434.1 1175.9,419.1 		"/>
		<polygon opacity="0.5" fill="#FFFFFF" enable-background="new    " points="1096.9,387.1 1096.9,402.1 1111.9,402.1 1111.9,387.1 
			1111.9,386.1 1111.9,371.1 1102.9,371.1 1102.9,370.1 1111.9,370.1 1111.9,355.1 1111.9,354.1 1111.9,339.1 1096.9,339.1 
			1096.9,354.1 1105.9,354.1 1105.9,355.1 1096.9,355.1 1096.9,370.1 1096.9,371.1 1096.9,386.1 1105.9,386.1 1105.9,387.1 		"/>
		<polygon fill="#FFFFFF" points="1032.9,419.1 1032.9,434.1 1047.9,434.1 1047.9,419.1 1047.9,418.1 1047.9,403.1 1038.9,403.1 
			1038.9,402.1 1047.9,402.1 1047.9,387.1 1047.9,386.1 1047.9,371.1 1032.9,371.1 1032.9,386.1 1041.9,386.1 1041.9,387.1 
			1032.9,387.1 1032.9,402.1 1032.9,403.1 1032.9,418.1 1041.9,418.1 1041.9,419.1 		"/>
		<polygon fill="#FFFFFF" points="1080.9,387.1 1080.9,402.1 1095.9,402.1 1095.9,387.1 1095.9,386.1 1095.9,371.1 1086.9,371.1 
			1086.9,370.1 1095.9,370.1 1095.9,355.1 1095.9,354.1 1095.9,339.1 1080.9,339.1 1080.9,354.1 1089.9,354.1 1089.9,355.1 
			1080.9,355.1 1080.9,370.1 1080.9,371.1 1080.9,386.1 1089.9,386.1 1089.9,387.1 		"/>
		<polygon fill="#FFFFFF" points="839.9,419.1 824.9,419.1 824.9,434.1 839.9,434.1 840.9,434.1 855.9,434.1 855.9,425.1 
			856.9,425.1 856.9,434.1 871.9,434.1 872.9,434.1 887.9,434.1 887.9,419.1 872.9,419.1 872.9,428.1 871.9,428.1 871.9,419.1 
			856.9,419.1 855.9,419.1 840.9,419.1 840.9,428.1 839.9,428.1 		"/>
		<polygon opacity="0.5" fill="#FFFFFF" enable-background="new    " points="1063.9,419.1 1048.9,419.1 1048.9,434.1 1063.9,434.1 
			1064.9,434.1 1079.9,434.1 1079.9,425.1 1080.9,425.1 1080.9,434.1 1095.9,434.1 1096.9,434.1 1111.9,434.1 1111.9,419.1 
			1096.9,419.1 1096.9,428.1 1095.9,428.1 1095.9,419.1 1080.9,419.1 1079.9,419.1 1064.9,419.1 1064.9,428.1 1063.9,428.1 		"/>
		<polygon opacity="0.5" fill="#FFFFFF" enable-background="new    " points="919.9,418.1 919.9,403.1 904.9,403.1 904.9,412.1 
			903.9,412.1 903.9,403.1 888.9,403.1 888.9,418.1 898.9,418.1 898.9,419.1 888.9,419.1 888.9,434.1 903.9,434.1 903.9,425.1 
			904.9,425.1 904.9,434.1 919.9,434.1 919.9,419.1 910.9,419.1 910.9,418.1 		"/>
		<polygon fill="#FFFFFF" points="1079.9,402.1 1079.9,387.1 1064.9,387.1 1064.9,396.1 1063.9,396.1 1063.9,387.1 1048.9,387.1 
			1048.9,402.1 1058.9,402.1 1058.9,403.1 1048.9,403.1 1048.9,418.1 1063.9,418.1 1063.9,409.1 1064.9,409.1 1064.9,418.1 
			1079.9,418.1 1079.9,403.1 1070.9,403.1 1070.9,402.1 		"/>
		<polygon opacity="0.5" fill="#FFFFFF" enable-background="new    " points="984.9,402.1 984.9,403.1 984.9,418.1 999.9,418.1 
			999.9,409.1 1000.9,409.1 1000.9,418.1 1000.9,419.1 1000.9,434.1 1015.9,434.1 1015.9,419.1 1006.9,419.1 1006.9,418.1 
			1015.9,418.1 1015.9,403.1 1000.9,403.1 999.9,403.1 990.9,403.1 990.9,402.1 999.9,402.1 999.9,387.1 984.9,387.1 		"/>
		<polygon fill="#FFFFFF" points="967.9,403.1 968.9,403.1 983.9,403.1 983.9,418.1 974.9,418.1 974.9,419.1 983.9,419.1 
			984.9,419.1 999.9,419.1 999.9,434.1 984.9,434.1 984.9,425.1 983.9,425.1 983.9,434.1 968.9,434.1 968.9,419.1 968.9,418.1 
			968.9,409.1 967.9,409.1 967.9,418.1 952.9,418.1 952.9,403.1 		"/>
		<polygon fill="#FFFFFF" points="1159.9,386.1 1159.9,387.1 1159.9,402.1 1144.9,402.1 1144.9,393.1 1143.9,393.1 1143.9,402.1 
			1143.9,403.1 1143.9,418.1 1128.9,418.1 1128.9,403.1 1137.9,403.1 1137.9,402.1 1128.9,402.1 1128.9,387.1 1143.9,387.1 
			1144.9,387.1 1153.9,387.1 1153.9,386.1 1144.9,386.1 1144.9,371.1 1159.9,371.1 		"/>
		<polygon fill="#FFFFFF" points="903.9,386.1 903.9,387.1 903.9,402.1 888.9,402.1 888.9,393.1 887.9,393.1 887.9,402.1 
			887.9,403.1 887.9,418.1 872.9,418.1 872.9,403.1 881.9,403.1 881.9,402.1 872.9,402.1 872.9,387.1 887.9,387.1 888.9,387.1 
			897.9,387.1 897.9,386.1 888.9,386.1 888.9,371.1 903.9,371.1 		"/>
		<polygon fill="#FFFFFF" points="920.9,418.1 920.9,419.1 920.9,434.1 935.9,434.1 935.9,425.1 936.9,425.1 936.9,434.1 
			951.9,434.1 952.9,434.1 967.9,434.1 967.9,419.1 952.9,419.1 952.9,428.1 951.9,428.1 951.9,419.1 936.9,419.1 935.9,419.1 
			926.9,419.1 926.9,418.1 935.9,418.1 935.9,403.1 920.9,403.1 		"/>
		<polygon fill="#FFFFFF" points="792.9,403.1 791.9,403.1 776.9,403.1 776.9,418.1 785.9,418.1 785.9,419.1 776.9,419.1 
			775.9,419.1 760.9,419.1 760.9,434.1 775.9,434.1 775.9,425.1 776.9,425.1 776.9,434.1 791.9,434.1 791.9,419.1 791.9,418.1 
			791.9,409.1 792.9,409.1 792.9,418.1 807.9,418.1 807.9,403.1 		"/>
		<polygon opacity="0.5" fill="#FFFFFF" enable-background="new    " points="760.9,403.1 759.9,403.1 744.9,403.1 744.9,418.1 
			753.9,418.1 753.9,419.1 744.9,419.1 743.9,419.1 728.9,419.1 728.9,434.1 743.9,434.1 743.9,425.1 744.9,425.1 744.9,434.1 
			759.9,434.1 759.9,419.1 759.9,418.1 759.9,409.1 760.9,409.1 760.9,418.1 775.9,418.1 775.9,403.1 		"/>
		<polygon opacity="0.5" fill="#FFFFFF" enable-background="new    " points="807.9,434.1 808.9,434.1 823.9,434.1 823.9,419.1 
			814.9,419.1 814.9,418.1 823.9,418.1 823.9,403.1 823.9,402.1 823.9,387.1 808.9,387.1 808.9,402.1 817.9,402.1 817.9,403.1 
			808.9,403.1 808.9,418.1 808.9,419.1 808.9,428.1 807.9,428.1 807.9,419.1 792.9,419.1 792.9,434.1 		"/>
		<polygon opacity="0.5" fill="#FFFFFF" enable-background="new    " points="952.9,371.1 951.9,371.1 936.9,371.1 936.9,386.1 
			945.9,386.1 945.9,387.1 936.9,387.1 936.9,402.1 936.9,403.1 936.9,418.1 951.9,418.1 951.9,403.1 942.9,403.1 942.9,402.1 
			951.9,402.1 951.9,387.1 951.9,386.1 951.9,377.1 952.9,377.1 952.9,386.1 967.9,386.1 967.9,371.1 		"/>
		<polygon fill="#FFFFFF" points="1127.9,419.1 1127.9,418.1 1127.9,403.1 1112.9,403.1 1112.9,412.1 1111.9,412.1 1111.9,403.1 
			1096.9,403.1 1095.9,403.1 1080.9,403.1 1080.9,418.1 1095.9,418.1 1095.9,409.1 1096.9,409.1 1096.9,418.1 1111.9,418.1 
			1112.9,418.1 1121.9,418.1 1121.9,419.1 1112.9,419.1 1112.9,434.1 1127.9,434.1 		"/>
		<polygon fill="#FFFFFF" points="1015.9,387.1 1016.9,387.1 1031.9,387.1 1031.9,402.1 1022.9,402.1 1022.9,403.1 1031.9,403.1 
			1031.9,418.1 1031.9,419.1 1031.9,434.1 1016.9,434.1 1016.9,419.1 1025.9,419.1 1025.9,418.1 1016.9,418.1 1016.9,403.1 
			1016.9,402.1 1016.9,393.1 1015.9,393.1 1015.9,402.1 1000.9,402.1 1000.9,387.1 		"/>
		<polygon fill="#FFFFFF" points="920.9,402.1 919.9,402.1 904.9,402.1 904.9,387.1 913.9,387.1 913.9,386.1 904.9,386.1 
			904.9,371.1 904.9,370.1 904.9,355.1 919.9,355.1 919.9,370.1 910.9,370.1 910.9,371.1 919.9,371.1 919.9,386.1 919.9,387.1 
			919.9,396.1 920.9,396.1 920.9,387.1 935.9,387.1 935.9,402.1 		"/>
	</g>
</g>
<g>
	<g>
		<polygon opacity="0.2" fill="#FFFFFF" enable-background="new    " points="-110.1,419.1 -111.1,419.1 -120.1,419.1 -120.1,418.1 
			-111.1,418.1 -111.1,403.1 -126.1,403.1 -126.1,417.6 -126.1,418.6 -126.1,428.1 -127.1,428.1 -127.1,419.1 -142.1,419.1 
			-142.1,434.1 -127.1,434.1 -126.1,434.1 -111.1,434.1 -111.1,425.1 -110.1,425.1 -110.1,434.1 -95.1,434.1 -95.1,419.1 		"/>
		<polygon opacity="0.1" fill="#FFFFFF" enable-background="new    " points="-79.1,386.6 -79.1,385.6 -79.1,377.1 -78.1,377.1 
			-78.1,386.1 -63.1,386.1 -63.1,371.1 -78.1,371.1 -79.1,371.1 -88.1,371.1 -88.1,370.1 -79.1,370.1 -79.1,355.1 -94.1,355.1 
			-94.1,369.6 -94.1,370.6 -94.1,386.1 -85.1,386.1 -85.1,387.1 -94.1,387.1 -94.1,402.1 -79.1,402.1 		"/>
		<polygon opacity="0.2" fill="#FFFFFF" enable-background="new    " points="65.9,419.1 64.9,419.1 55.9,419.1 55.9,418.1 
			64.9,418.1 64.9,403.1 49.9,403.1 49.9,417.6 49.9,418.6 49.9,428.1 48.9,428.1 48.9,419.1 33.9,419.1 33.9,434.1 48.9,434.1 
			49.9,434.1 64.9,434.1 64.9,425.1 65.9,425.1 65.9,434.1 80.9,434.1 80.9,419.1 		"/>
		<polygon opacity="0.1" fill="#FFFFFF" enable-background="new    " points="-286.1,419.1 -287.1,419.1 -296.1,419.1 -296.1,418.1 
			-287.1,418.1 -287.1,403.1 -302.1,403.1 -302.1,417.6 -302.1,418.6 -302.1,428.1 -303.1,428.1 -303.1,419.1 -318.1,419.1 
			-318.1,434.1 -303.1,434.1 -302.1,434.1 -287.1,434.1 -287.1,425.1 -286.1,425.1 -286.1,434.1 -271.1,434.1 -271.1,419.1 		"/>
		<polygon opacity="0.2" fill="#FFFFFF" enable-background="new    " points="-190.1,419.1 -190.1,434.1 -175.1,434.1 -175.1,418.6 
			-175.1,417.6 -175.1,403.1 -184.1,403.1 -184.1,402.1 -175.1,402.1 -175.1,386.6 -175.1,385.6 -175.1,371.1 -190.1,371.1 
			-190.1,386.1 -181.1,386.1 -181.1,387.1 -190.1,387.1 -190.1,401.6 -190.1,402.6 -190.1,418.1 -181.1,418.1 -181.1,419.1 		"/>
		<polygon opacity="0.2" fill="#FFFFFF" enable-background="new    " points="-174.1,403.1 -174.1,418.1 -159.1,418.1 -159.1,402.6 
			-159.1,401.6 -159.1,387.1 -168.1,387.1 -168.1,386.1 -159.1,386.1 -159.1,370.6 -159.1,369.6 -159.1,355.1 -174.1,355.1 
			-174.1,370.1 -165.1,370.1 -165.1,371.1 -174.1,371.1 -174.1,385.6 -174.1,386.6 -174.1,402.1 -165.1,402.1 -165.1,403.1 		"/>
		<polygon opacity="0.2" fill="#FFFFFF" enable-background="new    " points="-366.1,419.1 -366.1,434.1 -351.1,434.1 -351.1,418.6 
			-351.1,417.6 -351.1,403.1 -360.1,403.1 -360.1,402.1 -351.1,402.1 -351.1,386.6 -351.1,385.6 -351.1,371.1 -366.1,371.1 
			-366.1,386.1 -357.1,386.1 -357.1,387.1 -366.1,387.1 -366.1,401.6 -366.1,402.6 -366.1,418.1 -357.1,418.1 -357.1,419.1 		"/>
		<polygon opacity="0.2" fill="#FFFFFF" enable-background="new    " points="-31.1,387.1 -46.1,387.1 -46.1,402.1 -31.1,402.1 
			-30.1,402.1 -15.1,402.1 -15.1,393.1 -14.1,393.1 -14.1,402.1 0.9,402.1 1.9,402.1 16.9,402.1 16.9,387.1 1.9,387.1 1.9,396.1 
			0.9,396.1 0.9,387.1 -14.1,387.1 -15.1,387.1 -30.1,387.1 -30.1,396.1 -31.1,396.1 		"/>
		<polygon opacity="0.2" fill="#FFFFFF" enable-background="new    " points="-31.1,419.1 -46.1,419.1 -46.1,434.1 -31.1,434.1 
			-30.1,434.1 -15.1,434.1 -15.1,425.1 -14.1,425.1 -14.1,434.1 0.9,434.1 1.9,434.1 16.9,434.1 16.9,419.1 1.9,419.1 1.9,428.1 
			0.9,428.1 0.9,419.1 -14.1,419.1 -15.1,419.1 -30.1,419.1 -30.1,428.1 -31.1,428.1 		"/>
		<polygon opacity="0.1" fill="#FFFFFF" enable-background="new    " points="-191.1,418.1 -191.1,403.1 -206.1,403.1 -206.1,412.1 
			-207.1,412.1 -207.1,403.1 -222.1,403.1 -222.1,418.1 -212.1,418.1 -212.1,419.1 -222.1,419.1 -222.1,434.1 -207.1,434.1 
			-207.1,425.1 -206.1,425.1 -206.1,434.1 -191.1,434.1 -191.1,419.1 -200.1,419.1 -200.1,418.1 		"/>
		<polygon opacity="0.1" fill="#FFFFFF" enable-background="new    " points="-15.1,370.1 -15.1,355.1 -30.1,355.1 -30.1,364.1 
			-31.1,364.1 -31.1,355.1 -46.1,355.1 -46.1,370.1 -36.1,370.1 -36.1,371.1 -46.1,371.1 -46.1,386.1 -31.1,386.1 -31.1,377.1 
			-30.1,377.1 -30.1,386.1 -15.1,386.1 -15.1,371.1 -24.1,371.1 -24.1,370.1 		"/>
		<polygon opacity="0.2" fill="#FFFFFF" enable-background="new    " points="-319.1,418.1 -319.1,403.1 -334.1,403.1 -334.1,412.1 
			-335.1,412.1 -335.1,403.1 -350.1,403.1 -350.1,418.1 -340.1,418.1 -340.1,419.1 -350.1,419.1 -350.1,434.1 -335.1,434.1 
			-335.1,425.1 -334.1,425.1 -334.1,434.1 -319.1,434.1 -319.1,419.1 -328.1,419.1 -328.1,418.1 		"/>
		<polygon opacity="0.1" fill="#FFFFFF" enable-background="new    " points="-142.1,403.1 -143.1,403.1 -158.1,403.1 -158.1,418.1 
			-149.1,418.1 -149.1,419.1 -158.1,419.1 -159.1,419.1 -174.1,419.1 -174.1,434.1 -159.1,434.1 -159.1,425.1 -158.1,425.1 
			-158.1,434.1 -143.1,434.1 -143.1,418.6 -143.1,417.6 -143.1,409.1 -142.1,409.1 -142.1,418.1 -127.1,418.1 -127.1,403.1 		"/>
		<polygon opacity="0.2" fill="#FFFFFF" enable-background="new    " points="-222.1,369.6 -222.1,370.6 -222.1,386.1 -207.1,386.1 
			-207.1,377.1 -206.1,377.1 -206.1,385.6 -206.1,386.6 -206.1,402.1 -191.1,402.1 -191.1,387.1 -200.1,387.1 -200.1,386.1 
			-191.1,386.1 -191.1,371.1 -206.1,371.1 -207.1,371.1 -216.1,371.1 -216.1,370.1 -207.1,370.1 -207.1,355.1 -222.1,355.1 		"/>
		<polygon opacity="0.2" fill="#FFFFFF" enable-background="new    " points="-95.1,403.1 -94.1,403.1 -79.1,403.1 -79.1,418.1 
			-88.1,418.1 -88.1,419.1 -79.1,419.1 -78.1,419.1 -63.1,419.1 -63.1,434.1 -78.1,434.1 -78.1,425.1 -79.1,425.1 -79.1,434.1 
			-94.1,434.1 -94.1,418.6 -94.1,417.6 -94.1,409.1 -95.1,409.1 -95.1,418.1 -110.1,418.1 -110.1,403.1 		"/>
		<polygon opacity="0.1" fill="#FFFFFF" enable-background="new    " points="80.9,403.1 81.9,403.1 96.9,403.1 96.9,418.1 
			87.9,418.1 87.9,419.1 96.9,419.1 97.9,419.1 112.9,419.1 112.9,434.1 97.9,434.1 97.9,425.1 96.9,425.1 96.9,434.1 81.9,434.1 
			81.9,418.6 81.9,417.6 81.9,409.1 80.9,409.1 80.9,418.1 65.9,418.1 65.9,403.1 		"/>
		<polygon opacity="0.2" fill="#FFFFFF" enable-background="new    " points="-287.1,385.6 -287.1,386.6 -287.1,402.1 -302.1,402.1 
			-302.1,393.1 -303.1,393.1 -303.1,401.6 -303.1,402.6 -303.1,418.1 -318.1,418.1 -318.1,403.1 -309.1,403.1 -309.1,402.1 
			-318.1,402.1 -318.1,387.1 -303.1,387.1 -302.1,387.1 -293.1,387.1 -293.1,386.1 -302.1,386.1 -302.1,371.1 -287.1,371.1 		"/>
		<polygon opacity="0.1" fill="#FFFFFF" enable-background="new    " points="-111.1,369.6 -111.1,370.6 -111.1,386.1 -126.1,386.1 
			-126.1,377.1 -127.1,377.1 -127.1,385.6 -127.1,386.6 -127.1,402.1 -142.1,402.1 -142.1,387.1 -133.1,387.1 -133.1,386.1 
			-142.1,386.1 -142.1,371.1 -127.1,371.1 -126.1,371.1 -117.1,371.1 -117.1,370.1 -126.1,370.1 -126.1,355.1 -111.1,355.1 		"/>
		<polygon opacity="0.2" fill="#FFFFFF" enable-background="new    " points="-111.1,402.1 -110.1,402.1 -95.1,402.1 -95.1,387.1 
			-104.1,387.1 -104.1,386.1 -95.1,386.1 -95.1,370.6 -95.1,369.6 -95.1,355.1 -110.1,355.1 -110.1,370.1 -101.1,370.1 
			-101.1,371.1 -110.1,371.1 -110.1,385.6 -110.1,386.6 -110.1,396.1 -111.1,396.1 -111.1,387.1 -126.1,387.1 -126.1,402.1 		"/>
		<polygon opacity="0.1" fill="#FFFFFF" enable-background="new    " points="-383.1,434.1 -382.1,434.1 -367.1,434.1 -367.1,419.1 
			-376.1,419.1 -376.1,418.1 -367.1,418.1 -367.1,402.6 -367.1,401.6 -367.1,387.1 -382.1,387.1 -382.1,402.1 -373.1,402.1 
			-373.1,403.1 -382.1,403.1 -382.1,417.6 -382.1,418.6 -382.1,428.1 -383.1,428.1 -383.1,419.1 -398.1,419.1 -398.1,434.1 		"/>
		<polygon opacity="0.2" fill="#FFFFFF" enable-background="new    " points="-222.1,387.1 -223.1,387.1 -238.1,387.1 -238.1,402.1 
			-229.1,402.1 -229.1,403.1 -238.1,403.1 -238.1,417.6 -238.1,418.6 -238.1,434.1 -223.1,434.1 -223.1,419.1 -232.1,419.1 
			-232.1,418.1 -223.1,418.1 -223.1,402.6 -223.1,401.6 -223.1,393.1 -222.1,393.1 -222.1,402.1 -207.1,402.1 -207.1,387.1 		"/>
		<polygon opacity="0.1" fill="#FFFFFF" enable-background="new    " points="32.9,418.6 32.9,417.6 32.9,403.1 17.9,403.1 
			17.9,412.1 16.9,412.1 16.9,403.1 1.9,403.1 0.9,403.1 -14.1,403.1 -14.1,418.1 0.9,418.1 0.9,409.1 1.9,409.1 1.9,418.1 
			16.9,418.1 17.9,418.1 26.9,418.1 26.9,419.1 17.9,419.1 17.9,434.1 32.9,434.1 		"/>
		<polygon opacity="0.2" fill="#FFFFFF" enable-background="new    " points="-62.1,418.6 -62.1,417.6 -62.1,403.1 -47.1,403.1 
			-47.1,412.1 -46.1,412.1 -46.1,403.1 -31.1,403.1 -30.1,403.1 -15.1,403.1 -15.1,418.1 -30.1,418.1 -30.1,409.1 -31.1,409.1 
			-31.1,418.1 -46.1,418.1 -47.1,418.1 -56.1,418.1 -56.1,419.1 -47.1,419.1 -47.1,434.1 -62.1,434.1 		"/>
		<polygon opacity="0.1" fill="#FFFFFF" enable-background="new    " points="-190.1,370.1 -191.1,370.1 -206.1,370.1 -206.1,355.1 
			-197.1,355.1 -197.1,354.1 -206.1,354.1 -206.1,338.6 -206.1,337.6 -206.1,323.1 -191.1,323.1 -191.1,338.1 -200.1,338.1 
			-200.1,339.1 -191.1,339.1 -191.1,353.6 -191.1,354.6 -191.1,364.1 -190.1,364.1 -190.1,355.1 -175.1,355.1 -175.1,370.1 		"/>
		<polygon opacity="0.2" fill="#FFFFFF" enable-background="new    " points="-254.1,434.1 -255.1,434.1 -270.1,434.1 -270.1,419.1 
			-261.1,419.1 -261.1,418.1 -270.1,418.1 -270.1,402.6 -270.1,401.6 -270.1,387.1 -255.1,387.1 -255.1,402.1 -264.1,402.1 
			-264.1,403.1 -255.1,403.1 -255.1,417.6 -255.1,418.6 -255.1,428.1 -254.1,428.1 -254.1,419.1 -239.1,419.1 -239.1,434.1 		"/>
		<polygon opacity="0.2" fill="#FFFFFF" enable-background="new    " points="-398.1,403.1 -399.1,403.1 -414.1,403.1 -414.1,418.1 
			-405.1,418.1 -405.1,419.1 -414.1,419.1 -415.1,419.1 -430.1,419.1 -430.1,434.1 -415.1,434.1 -415.1,425.1 -414.1,425.1 
			-414.1,434.1 -399.1,434.1 -399.1,418.6 -399.1,417.6 -399.1,409.1 -398.1,409.1 -398.1,418.1 -383.1,418.1 -383.1,403.1 		"/>
	</g>
	<g opacity="0.2">
		<polygon fill="#FFFFFF" points="-750.1,403.1 -751.1,403.1 -760.1,403.1 -760.1,402.1 -751.1,402.1 -751.1,387.1 -766.1,387.1 
			-766.1,402.1 -766.1,403.1 -766.1,412.1 -767.1,412.1 -767.1,403.1 -782.1,403.1 -782.1,418.1 -767.1,418.1 -766.1,418.1 
			-751.1,418.1 -751.1,409.1 -750.1,409.1 -750.1,418.1 -735.1,418.1 -735.1,403.1 		"/>
		<polygon fill="#FFFFFF" points="-590.1,371.1 -591.1,371.1 -600.1,371.1 -600.1,370.1 -591.1,370.1 -591.1,355.1 -606.1,355.1 
			-606.1,370.1 -606.1,371.1 -606.1,380.1 -607.1,380.1 -607.1,371.1 -622.1,371.1 -622.1,386.1 -607.1,386.1 -606.1,386.1 
			-591.1,386.1 -591.1,377.1 -590.1,377.1 -590.1,386.1 -575.1,386.1 -575.1,371.1 		"/>
		<polygon fill="#FFFFFF" points="-479.1,387.1 -479.1,386.1 -479.1,377.1 -478.1,377.1 -478.1,386.1 -463.1,386.1 -463.1,371.1 
			-478.1,371.1 -479.1,371.1 -488.1,371.1 -488.1,370.1 -479.1,370.1 -479.1,355.1 -494.1,355.1 -494.1,370.1 -494.1,371.1 
			-494.1,386.1 -485.1,386.1 -485.1,387.1 -494.1,387.1 -494.1,402.1 -479.1,402.1 		"/>
		<polygon opacity="0.5" fill="#FFFFFF" enable-background="new    " points="-446.1,419.1 -447.1,419.1 -456.1,419.1 -456.1,418.1 
			-447.1,418.1 -447.1,403.1 -462.1,403.1 -462.1,418.1 -462.1,419.1 -462.1,428.1 -463.1,428.1 -463.1,419.1 -478.1,419.1 
			-478.1,434.1 -463.1,434.1 -462.1,434.1 -447.1,434.1 -447.1,425.1 -446.1,425.1 -446.1,434.1 -431.1,434.1 -431.1,419.1 		"/>
		<polygon opacity="0.5" fill="#FFFFFF" enable-background="new    " points="-510.1,387.1 -510.1,402.1 -495.1,402.1 -495.1,387.1 
			-495.1,386.1 -495.1,371.1 -504.1,371.1 -504.1,370.1 -495.1,370.1 -495.1,355.1 -495.1,354.1 -495.1,339.1 -510.1,339.1 
			-510.1,354.1 -501.1,354.1 -501.1,355.1 -510.1,355.1 -510.1,370.1 -510.1,371.1 -510.1,386.1 -501.1,386.1 -501.1,387.1 		"/>
		<polygon fill="#FFFFFF" points="-574.1,419.1 -574.1,434.1 -559.1,434.1 -559.1,419.1 -559.1,418.1 -559.1,403.1 -568.1,403.1 
			-568.1,402.1 -559.1,402.1 -559.1,387.1 -559.1,386.1 -559.1,371.1 -574.1,371.1 -574.1,386.1 -565.1,386.1 -565.1,387.1 
			-574.1,387.1 -574.1,402.1 -574.1,403.1 -574.1,418.1 -565.1,418.1 -565.1,419.1 		"/>
		<polygon fill="#FFFFFF" points="-526.1,387.1 -526.1,402.1 -511.1,402.1 -511.1,387.1 -511.1,386.1 -511.1,371.1 -520.1,371.1 
			-520.1,370.1 -511.1,370.1 -511.1,355.1 -511.1,354.1 -511.1,339.1 -526.1,339.1 -526.1,354.1 -517.1,354.1 -517.1,355.1 
			-526.1,355.1 -526.1,370.1 -526.1,371.1 -526.1,386.1 -517.1,386.1 -517.1,387.1 		"/>
		<polygon fill="#FFFFFF" points="-767.1,419.1 -782.1,419.1 -782.1,434.1 -767.1,434.1 -766.1,434.1 -751.1,434.1 -751.1,425.1 
			-750.1,425.1 -750.1,434.1 -735.1,434.1 -734.1,434.1 -719.1,434.1 -719.1,419.1 -734.1,419.1 -734.1,428.1 -735.1,428.1 
			-735.1,419.1 -750.1,419.1 -751.1,419.1 -766.1,419.1 -766.1,428.1 -767.1,428.1 		"/>
		<polygon opacity="0.5" fill="#FFFFFF" enable-background="new    " points="-543.1,419.1 -558.1,419.1 -558.1,434.1 -543.1,434.1 
			-542.1,434.1 -527.1,434.1 -527.1,425.1 -526.1,425.1 -526.1,434.1 -511.1,434.1 -510.1,434.1 -495.1,434.1 -495.1,419.1 
			-510.1,419.1 -510.1,428.1 -511.1,428.1 -511.1,419.1 -526.1,419.1 -527.1,419.1 -542.1,419.1 -542.1,428.1 -543.1,428.1 		"/>
		<polygon opacity="0.5" fill="#FFFFFF" enable-background="new    " points="-687.1,418.1 -687.1,403.1 -702.1,403.1 -702.1,412.1 
			-703.1,412.1 -703.1,403.1 -718.1,403.1 -718.1,418.1 -708.1,418.1 -708.1,419.1 -718.1,419.1 -718.1,434.1 -703.1,434.1 
			-703.1,425.1 -702.1,425.1 -702.1,434.1 -687.1,434.1 -687.1,419.1 -696.1,419.1 -696.1,418.1 		"/>
		<polygon fill="#FFFFFF" points="-527.1,402.1 -527.1,387.1 -542.1,387.1 -542.1,396.1 -543.1,396.1 -543.1,387.1 -558.1,387.1 
			-558.1,402.1 -548.1,402.1 -548.1,403.1 -558.1,403.1 -558.1,418.1 -543.1,418.1 -543.1,409.1 -542.1,409.1 -542.1,418.1 
			-527.1,418.1 -527.1,403.1 -536.1,403.1 -536.1,402.1 		"/>
		<polygon opacity="0.5" fill="#FFFFFF" enable-background="new    " points="-622.1,402.1 -622.1,403.1 -622.1,418.1 -607.1,418.1 
			-607.1,409.1 -606.1,409.1 -606.1,418.1 -606.1,419.1 -606.1,434.1 -591.1,434.1 -591.1,419.1 -600.1,419.1 -600.1,418.1 
			-591.1,418.1 -591.1,403.1 -606.1,403.1 -607.1,403.1 -616.1,403.1 -616.1,402.1 -607.1,402.1 -607.1,387.1 -622.1,387.1 		"/>
		<polygon fill="#FFFFFF" points="-639.1,403.1 -638.1,403.1 -623.1,403.1 -623.1,418.1 -632.1,418.1 -632.1,419.1 -623.1,419.1 
			-622.1,419.1 -607.1,419.1 -607.1,434.1 -622.1,434.1 -622.1,425.1 -623.1,425.1 -623.1,434.1 -638.1,434.1 -638.1,419.1 
			-638.1,418.1 -638.1,409.1 -639.1,409.1 -639.1,418.1 -654.1,418.1 -654.1,403.1 		"/>
		<polygon fill="#FFFFFF" points="-447.1,386.1 -447.1,387.1 -447.1,402.1 -462.1,402.1 -462.1,393.1 -463.1,393.1 -463.1,402.1 
			-463.1,403.1 -463.1,418.1 -478.1,418.1 -478.1,403.1 -469.1,403.1 -469.1,402.1 -478.1,402.1 -478.1,387.1 -463.1,387.1 
			-462.1,387.1 -453.1,387.1 -453.1,386.1 -462.1,386.1 -462.1,371.1 -447.1,371.1 		"/>
		<polygon fill="#FFFFFF" points="-703.1,386.1 -703.1,387.1 -703.1,402.1 -718.1,402.1 -718.1,393.1 -719.1,393.1 -719.1,402.1 
			-719.1,403.1 -719.1,418.1 -734.1,418.1 -734.1,403.1 -725.1,403.1 -725.1,402.1 -734.1,402.1 -734.1,387.1 -719.1,387.1 
			-718.1,387.1 -709.1,387.1 -709.1,386.1 -718.1,386.1 -718.1,371.1 -703.1,371.1 		"/>
		<polygon fill="#FFFFFF" points="-686.1,418.1 -686.1,419.1 -686.1,434.1 -671.1,434.1 -671.1,425.1 -670.1,425.1 -670.1,434.1 
			-655.1,434.1 -654.1,434.1 -639.1,434.1 -639.1,419.1 -654.1,419.1 -654.1,428.1 -655.1,428.1 -655.1,419.1 -670.1,419.1 
			-671.1,419.1 -680.1,419.1 -680.1,418.1 -671.1,418.1 -671.1,403.1 -686.1,403.1 		"/>
		<polygon fill="#FFFFFF" points="-799.1,386.1 -799.1,371.1 -814.1,371.1 -814.1,380.1 -815.1,380.1 -815.1,371.1 -830.1,371.1 
			-830.1,386.1 -820.1,386.1 -820.1,387.1 -830.1,387.1 -830.1,402.1 -815.1,402.1 -815.1,393.1 -814.1,393.1 -814.1,402.1 
			-799.1,402.1 -799.1,387.1 -808.1,387.1 -808.1,386.1 		"/>
		<polygon fill="#FFFFFF" points="-814.1,403.1 -815.1,403.1 -830.1,403.1 -830.1,418.1 -821.1,418.1 -821.1,419.1 -830.1,419.1 
			-831.1,419.1 -846.1,419.1 -846.1,434.1 -831.1,434.1 -831.1,425.1 -830.1,425.1 -830.1,434.1 -815.1,434.1 -815.1,419.1 
			-815.1,418.1 -815.1,409.1 -814.1,409.1 -814.1,418.1 -799.1,418.1 -799.1,403.1 		"/>
		<polygon opacity="0.5" fill="#FFFFFF" enable-background="new    " points="-846.1,403.1 -847.1,403.1 -862.1,403.1 -862.1,418.1 
			-853.1,418.1 -853.1,419.1 -862.1,419.1 -863.1,419.1 -878.1,419.1 -878.1,434.1 -863.1,434.1 -863.1,425.1 -862.1,425.1 
			-862.1,434.1 -847.1,434.1 -847.1,419.1 -847.1,418.1 -847.1,409.1 -846.1,409.1 -846.1,418.1 -831.1,418.1 -831.1,403.1 		"/>
		<polygon opacity="0.5" fill="#FFFFFF" enable-background="new    " points="-799.1,434.1 -798.1,434.1 -783.1,434.1 -783.1,419.1 
			-792.1,419.1 -792.1,418.1 -783.1,418.1 -783.1,403.1 -783.1,402.1 -783.1,387.1 -798.1,387.1 -798.1,402.1 -789.1,402.1 
			-789.1,403.1 -798.1,403.1 -798.1,418.1 -798.1,419.1 -798.1,428.1 -799.1,428.1 -799.1,419.1 -814.1,419.1 -814.1,434.1 		"/>
		<polygon opacity="0.5" fill="#FFFFFF" enable-background="new    " points="-654.1,371.1 -655.1,371.1 -670.1,371.1 -670.1,386.1 
			-661.1,386.1 -661.1,387.1 -670.1,387.1 -670.1,402.1 -670.1,403.1 -670.1,418.1 -655.1,418.1 -655.1,403.1 -664.1,403.1 
			-664.1,402.1 -655.1,402.1 -655.1,387.1 -655.1,386.1 -655.1,377.1 -654.1,377.1 -654.1,386.1 -639.1,386.1 -639.1,371.1 		"/>
		<polygon fill="#FFFFFF" points="-479.1,419.1 -479.1,418.1 -479.1,403.1 -494.1,403.1 -494.1,412.1 -495.1,412.1 -495.1,403.1 
			-510.1,403.1 -511.1,403.1 -526.1,403.1 -526.1,418.1 -511.1,418.1 -511.1,409.1 -510.1,409.1 -510.1,418.1 -495.1,418.1 
			-494.1,418.1 -485.1,418.1 -485.1,419.1 -494.1,419.1 -494.1,434.1 -479.1,434.1 		"/>
		<polygon fill="#FFFFFF" points="-591.1,387.1 -590.1,387.1 -575.1,387.1 -575.1,402.1 -584.1,402.1 -584.1,403.1 -575.1,403.1 
			-575.1,418.1 -575.1,419.1 -575.1,434.1 -590.1,434.1 -590.1,419.1 -581.1,419.1 -581.1,418.1 -590.1,418.1 -590.1,403.1 
			-590.1,402.1 -590.1,393.1 -591.1,393.1 -591.1,402.1 -606.1,402.1 -606.1,387.1 		"/>
		<polygon fill="#FFFFFF" points="-686.1,402.1 -687.1,402.1 -702.1,402.1 -702.1,387.1 -693.1,387.1 -693.1,386.1 -702.1,386.1 
			-702.1,371.1 -702.1,370.1 -702.1,355.1 -687.1,355.1 -687.1,370.1 -696.1,370.1 -696.1,371.1 -687.1,371.1 -687.1,386.1 
			-687.1,387.1 -687.1,396.1 -686.1,396.1 -686.1,387.1 -671.1,387.1 -671.1,402.1 		"/>
	</g>
</g>
</svg>
