<?xml version="1.0" encoding="utf-8"?>
<!-- Generator: Adobe Illustrator 18.1.1, SVG Export Plug-In . SVG Version: 6.00 Build 0)  -->
<svg version="1.1" id="Layer_1" xmlns="http://www.w3.org/2000/svg" xmlns:xlink="http://www.w3.org/1999/xlink" x="0px" y="0px"
	 viewBox="0 0 2141 192" enable-background="new 0 0 2141 192" xml:space="preserve">
<g>
	<g>
		<polygon opacity="0.2" fill="#FFFFFF" points="1918,177 1917,177 1908,177 1908,176 1917,176 1917,161 1902,161 1902,175.5 
			1902,176.5 1902,186 1901,186 1901,177 1886,177 1886,192 1901,192 1902,192 1917,192 1917,183 1918,183 1918,192 1933,192 
			1933,177 		"/>
		<polygon opacity="0.1" fill="#FFFFFF" points="1949,144.5 1949,143.5 1949,135 1950,135 1950,144 1965,144 1965,129 1950,129 
			1949,129 1940,129 1940,128 1949,128 1949,113 1934,113 1934,127.5 1934,128.5 1934,144 1943,144 1943,145 1934,145 1934,160 
			1949,160 		"/>
		<polygon opacity="0.2" fill="#FFFFFF" points="2094,177 2093,177 2084,177 2084,176 2093,176 2093,161 2078,161 2078,175.5 
			2078,176.5 2078,186 2077,186 2077,177 2062,177 2062,192 2077,192 2078,192 2093,192 2093,183 2094,183 2094,192 2109,192 
			2109,177 		"/>
		<polygon opacity="0.1" fill="#FFFFFF" points="1742,177 1741,177 1732,177 1732,176 1741,176 1741,161 1726,161 1726,175.5 
			1726,176.5 1726,186 1725,186 1725,177 1710,177 1710,192 1725,192 1726,192 1741,192 1741,183 1742,183 1742,192 1757,192 
			1757,177 		"/>
		<polygon opacity="0.2" fill="#FFFFFF" points="1838,177 1838,192 1853,192 1853,176.5 1853,175.5 1853,161 1844,161 1844,160 
			1853,160 1853,144.5 1853,143.5 1853,129 1838,129 1838,144 1847,144 1847,145 1838,145 1838,159.5 1838,160.5 1838,176 1847,176 
			1847,177 		"/>
		<polygon opacity="0.2" fill="#FFFFFF" points="1854,161 1854,176 1869,176 1869,160.5 1869,159.5 1869,145 1860,145 1860,144 
			1869,144 1869,128.5 1869,127.5 1869,113 1854,113 1854,128 1863,128 1863,129 1854,129 1854,143.5 1854,144.5 1854,160 1863,160 
			1863,161 		"/>
		<polygon opacity="0.2" fill="#FFFFFF" points="1662,177 1662,192 1677,192 1677,176.5 1677,175.5 1677,161 1668,161 1668,160 
			1677,160 1677,144.5 1677,143.5 1677,129 1662,129 1662,144 1671,144 1671,145 1662,145 1662,159.5 1662,160.5 1662,176 1671,176 
			1671,177 		"/>
		<polygon opacity="0.2" fill="#FFFFFF" points="1997,145 1982,145 1982,160 1997,160 1998,160 2013,160 2013,151 2014,151 
			2014,160 2029,160 2030,160 2045,160 2045,145 2030,145 2030,154 2029,154 2029,145 2014,145 2013,145 1998,145 1998,154 
			1997,154 		"/>
		<polygon opacity="0.2" fill="#FFFFFF" points="1997,177 1982,177 1982,192 1997,192 1998,192 2013,192 2013,183 2014,183 
			2014,192 2029,192 2030,192 2045,192 2045,177 2030,177 2030,186 2029,186 2029,177 2014,177 2013,177 1998,177 1998,186 
			1997,186 		"/>
		<polygon opacity="0.1" fill="#FFFFFF" points="1837,176 1837,161 1822,161 1822,170 1821,170 1821,161 1806,161 1806,176 
			1816,176 1816,177 1806,177 1806,192 1821,192 1821,183 1822,183 1822,192 1837,192 1837,177 1828,177 1828,176 		"/>
		<polygon opacity="0.1" fill="#FFFFFF" points="2013,128 2013,113 1998,113 1998,122 1997,122 1997,113 1982,113 1982,128 
			1992,128 1992,129 1982,129 1982,144 1997,144 1997,135 1998,135 1998,144 2013,144 2013,129 2004,129 2004,128 		"/>
		<polygon opacity="0.2" fill="#FFFFFF" points="1709,176 1709,161 1694,161 1694,170 1693,170 1693,161 1678,161 1678,176 
			1688,176 1688,177 1678,177 1678,192 1693,192 1693,183 1694,183 1694,192 1709,192 1709,177 1700,177 1700,176 		"/>
		<polygon opacity="0.1" fill="#FFFFFF" points="1886,161 1885,161 1870,161 1870,176 1879,176 1879,177 1870,177 1869,177 
			1854,177 1854,192 1869,192 1869,183 1870,183 1870,192 1885,192 1885,176.5 1885,175.5 1885,167 1886,167 1886,176 1901,176 
			1901,161 		"/>
		<polygon opacity="0.2" fill="#FFFFFF" points="1806,127.5 1806,128.5 1806,144 1821,144 1821,135 1822,135 1822,143.5 1822,144.5 
			1822,160 1837,160 1837,145 1828,145 1828,144 1837,144 1837,129 1822,129 1821,129 1812,129 1812,128 1821,128 1821,113 
			1806,113 		"/>
		<polygon opacity="0.2" fill="#FFFFFF" points="1933,161 1934,161 1949,161 1949,176 1940,176 1940,177 1949,177 1950,177 
			1965,177 1965,192 1950,192 1950,183 1949,183 1949,192 1934,192 1934,176.5 1934,175.5 1934,167 1933,167 1933,176 1918,176 
			1918,161 		"/>
		<polygon opacity="0.1" fill="#FFFFFF" points="2109,161 2110,161 2125,161 2125,176 2116,176 2116,177 2125,177 2126,177 
			2141,177 2141,192 2126,192 2126,183 2125,183 2125,192 2110,192 2110,176.5 2110,175.5 2110,167 2109,167 2109,176 2094,176 
			2094,161 		"/>
		<polygon opacity="0.2" fill="#FFFFFF" points="1741,143.5 1741,144.5 1741,160 1726,160 1726,151 1725,151 1725,159.5 1725,160.5 
			1725,176 1710,176 1710,161 1719,161 1719,160 1710,160 1710,145 1725,145 1726,145 1735,145 1735,144 1726,144 1726,129 
			1741,129 		"/>
		<polygon opacity="0.1" fill="#FFFFFF" points="1917,127.5 1917,128.5 1917,144 1902,144 1902,135 1901,135 1901,143.5 1901,144.5 
			1901,160 1886,160 1886,145 1895,145 1895,144 1886,144 1886,129 1901,129 1902,129 1911,129 1911,128 1902,128 1902,113 
			1917,113 		"/>
		<polygon opacity="0.2" fill="#FFFFFF" points="1917,160 1918,160 1933,160 1933,145 1924,145 1924,144 1933,144 1933,128.5 
			1933,127.5 1933,113 1918,113 1918,128 1927,128 1927,129 1918,129 1918,143.5 1918,144.5 1918,154 1917,154 1917,145 1902,145 
			1902,160 		"/>
		<polygon opacity="0.1" fill="#FFFFFF" points="1645,192 1646,192 1661,192 1661,177 1652,177 1652,176 1661,176 1661,160.5 
			1661,159.5 1661,145 1646,145 1646,160 1655,160 1655,161 1646,161 1646,175.5 1646,176.5 1646,186 1645,186 1645,177 1630,177 
			1630,192 		"/>
		<polygon opacity="0.2" fill="#FFFFFF" points="1806,145 1805,145 1790,145 1790,160 1799,160 1799,161 1790,161 1790,175.5 
			1790,176.5 1790,192 1805,192 1805,177 1796,177 1796,176 1805,176 1805,160.5 1805,159.5 1805,151 1806,151 1806,160 1821,160 
			1821,145 		"/>
		<polygon opacity="0.1" fill="#FFFFFF" points="2061,176.5 2061,175.5 2061,161 2046,161 2046,170 2045,170 2045,161 2030,161 
			2029,161 2014,161 2014,176 2029,176 2029,167 2030,167 2030,176 2045,176 2046,176 2055,176 2055,177 2046,177 2046,192 
			2061,192 		"/>
		<polygon opacity="0.2" fill="#FFFFFF" points="1966,176.5 1966,175.5 1966,161 1981,161 1981,170 1982,170 1982,161 1997,161 
			1998,161 2013,161 2013,176 1998,176 1998,167 1997,167 1997,176 1982,176 1981,176 1972,176 1972,177 1981,177 1981,192 
			1966,192 		"/>
		<polygon opacity="0.1" fill="#FFFFFF" points="1838,128 1837,128 1822,128 1822,113 1831,113 1831,112 1822,112 1822,96.5 
			1822,95.5 1822,81 1837,81 1837,96 1828,96 1828,97 1837,97 1837,111.5 1837,112.5 1837,122 1838,122 1838,113 1853,113 1853,128 
					"/>
		<polygon opacity="0.2" fill="#FFFFFF" points="1774,192 1773,192 1758,192 1758,177 1767,177 1767,176 1758,176 1758,160.5 
			1758,159.5 1758,145 1773,145 1773,160 1764,160 1764,161 1773,161 1773,175.5 1773,176.5 1773,186 1774,186 1774,177 1789,177 
			1789,192 		"/>
		<polygon opacity="0.2" fill="#FFFFFF" points="1630,161 1629,161 1614,161 1614,176 1623,176 1623,177 1614,177 1613,177 
			1598,177 1598,192 1613,192 1613,183 1614,183 1614,192 1629,192 1629,176.5 1629,175.5 1629,167 1630,167 1630,176 1645,176 
			1645,161 		"/>
	</g>
	<g opacity="0.2">
		<polygon fill="#FFFFFF" points="1278,161 1277,161 1268,161 1268,160 1277,160 1277,145 1262,145 1262,160 1262,161 1262,170 
			1261,170 1261,161 1246,161 1246,176 1261,176 1262,176 1277,176 1277,167 1278,167 1278,176 1293,176 1293,161 		"/>
		<polygon fill="#FFFFFF" points="1438,129 1437,129 1428,129 1428,128 1437,128 1437,113 1422,113 1422,128 1422,129 1422,138 
			1421,138 1421,129 1406,129 1406,144 1421,144 1422,144 1437,144 1437,135 1438,135 1438,144 1453,144 1453,129 		"/>
		<polygon fill="#FFFFFF" points="1549,145 1549,144 1549,135 1550,135 1550,144 1565,144 1565,129 1550,129 1549,129 1540,129 
			1540,128 1549,128 1549,113 1534,113 1534,128 1534,129 1534,144 1543,144 1543,145 1534,145 1534,160 1549,160 		"/>
		<polygon opacity="0.5" fill="#FFFFFF" points="1582,177 1581,177 1572,177 1572,176 1581,176 1581,161 1566,161 1566,176 
			1566,177 1566,186 1565,186 1565,177 1550,177 1550,192 1565,192 1566,192 1581,192 1581,183 1582,183 1582,192 1597,192 
			1597,177 		"/>
		<polygon opacity="0.5" fill="#FFFFFF" points="1518,145 1518,160 1533,160 1533,145 1533,144 1533,129 1524,129 1524,128 
			1533,128 1533,113 1533,112 1533,97 1518,97 1518,112 1527,112 1527,113 1518,113 1518,128 1518,129 1518,144 1527,144 1527,145 
					"/>
		<polygon fill="#FFFFFF" points="1454,177 1454,192 1469,192 1469,177 1469,176 1469,161 1460,161 1460,160 1469,160 1469,145 
			1469,144 1469,129 1454,129 1454,144 1463,144 1463,145 1454,145 1454,160 1454,161 1454,176 1463,176 1463,177 		"/>
		<polygon fill="#FFFFFF" points="1502,145 1502,160 1517,160 1517,145 1517,144 1517,129 1508,129 1508,128 1517,128 1517,113 
			1517,112 1517,97 1502,97 1502,112 1511,112 1511,113 1502,113 1502,128 1502,129 1502,144 1511,144 1511,145 		"/>
		<polygon fill="#FFFFFF" points="1261,177 1246,177 1246,192 1261,192 1262,192 1277,192 1277,183 1278,183 1278,192 1293,192 
			1294,192 1309,192 1309,177 1294,177 1294,186 1293,186 1293,177 1278,177 1277,177 1262,177 1262,186 1261,186 		"/>
		<polygon opacity="0.5" fill="#FFFFFF" points="1485,177 1470,177 1470,192 1485,192 1486,192 1501,192 1501,183 1502,183 
			1502,192 1517,192 1518,192 1533,192 1533,177 1518,177 1518,186 1517,186 1517,177 1502,177 1501,177 1486,177 1486,186 
			1485,186 		"/>
		<polygon opacity="0.5" fill="#FFFFFF" points="1341,176 1341,161 1326,161 1326,170 1325,170 1325,161 1310,161 1310,176 
			1320,176 1320,177 1310,177 1310,192 1325,192 1325,183 1326,183 1326,192 1341,192 1341,177 1332,177 1332,176 		"/>
		<polygon fill="#FFFFFF" points="1501,160 1501,145 1486,145 1486,154 1485,154 1485,145 1470,145 1470,160 1480,160 1480,161 
			1470,161 1470,176 1485,176 1485,167 1486,167 1486,176 1501,176 1501,161 1492,161 1492,160 		"/>
		<polygon opacity="0.5" fill="#FFFFFF" points="1406,160 1406,161 1406,176 1421,176 1421,167 1422,167 1422,176 1422,177 
			1422,192 1437,192 1437,177 1428,177 1428,176 1437,176 1437,161 1422,161 1421,161 1412,161 1412,160 1421,160 1421,145 
			1406,145 		"/>
		<polygon fill="#FFFFFF" points="1389,161 1390,161 1405,161 1405,176 1396,176 1396,177 1405,177 1406,177 1421,177 1421,192 
			1406,192 1406,183 1405,183 1405,192 1390,192 1390,177 1390,176 1390,167 1389,167 1389,176 1374,176 1374,161 		"/>
		<polygon fill="#FFFFFF" points="1581,144 1581,145 1581,160 1566,160 1566,151 1565,151 1565,160 1565,161 1565,176 1550,176 
			1550,161 1559,161 1559,160 1550,160 1550,145 1565,145 1566,145 1575,145 1575,144 1566,144 1566,129 1581,129 		"/>
		<polygon fill="#FFFFFF" points="1325,144 1325,145 1325,160 1310,160 1310,151 1309,151 1309,160 1309,161 1309,176 1294,176 
			1294,161 1303,161 1303,160 1294,160 1294,145 1309,145 1310,145 1319,145 1319,144 1310,144 1310,129 1325,129 		"/>
		<polygon fill="#FFFFFF" points="1342,176 1342,177 1342,192 1357,192 1357,183 1358,183 1358,192 1373,192 1374,192 1389,192 
			1389,177 1374,177 1374,186 1373,186 1373,177 1358,177 1357,177 1348,177 1348,176 1357,176 1357,161 1342,161 		"/>
		<polygon fill="#FFFFFF" points="1214,161 1213,161 1198,161 1198,176 1207,176 1207,177 1198,177 1197,177 1182,177 1182,192 
			1197,192 1197,183 1198,183 1198,192 1213,192 1213,177 1213,176 1213,167 1214,167 1214,176 1229,176 1229,161 		"/>
		<polygon opacity="0.5" fill="#FFFFFF" points="1182,161 1181,161 1166,161 1166,176 1175,176 1175,177 1166,177 1165,177 
			1150,177 1150,192 1165,192 1165,183 1166,183 1166,192 1181,192 1181,177 1181,176 1181,167 1182,167 1182,176 1197,176 
			1197,161 		"/>
		<polygon opacity="0.5" fill="#FFFFFF" points="1229,192 1230,192 1245,192 1245,177 1236,177 1236,176 1245,176 1245,161 
			1245,160 1245,145 1230,145 1230,160 1239,160 1239,161 1230,161 1230,176 1230,177 1230,186 1229,186 1229,177 1214,177 
			1214,192 		"/>
		<polygon opacity="0.5" fill="#FFFFFF" points="1374,129 1373,129 1358,129 1358,144 1367,144 1367,145 1358,145 1358,160 
			1358,161 1358,176 1373,176 1373,161 1364,161 1364,160 1373,160 1373,145 1373,144 1373,135 1374,135 1374,144 1389,144 
			1389,129 		"/>
		<polygon fill="#FFFFFF" points="1549,177 1549,176 1549,161 1534,161 1534,170 1533,170 1533,161 1518,161 1517,161 1502,161 
			1502,176 1517,176 1517,167 1518,167 1518,176 1533,176 1534,176 1543,176 1543,177 1534,177 1534,192 1549,192 		"/>
		<polygon fill="#FFFFFF" points="1437,145 1438,145 1453,145 1453,160 1444,160 1444,161 1453,161 1453,176 1453,177 1453,192 
			1438,192 1438,177 1447,177 1447,176 1438,176 1438,161 1438,160 1438,151 1437,151 1437,160 1422,160 1422,145 		"/>
		<polygon fill="#FFFFFF" points="1342,160 1341,160 1326,160 1326,145 1335,145 1335,144 1326,144 1326,129 1326,128 1326,113 
			1341,113 1341,128 1332,128 1332,129 1341,129 1341,144 1341,145 1341,154 1342,154 1342,145 1357,145 1357,160 		"/>
	</g>
</g>
<g>
	<g>
		<polygon opacity="0.2" fill="#FFFFFF" points="768,177 767,177 758,177 758,176 767,176 767,161 752,161 752,175.5 752,176.5 
			752,186 751,186 751,177 736,177 736,192 751,192 752,192 767,192 767,183 768,183 768,192 783,192 783,177 		"/>
		<polygon opacity="0.1" fill="#FFFFFF" points="799,144.5 799,143.5 799,135 800,135 800,144 815,144 815,129 800,129 799,129 
			790,129 790,128 799,128 799,113 784,113 784,127.5 784,128.5 784,144 793,144 793,145 784,145 784,160 799,160 		"/>
		<polygon opacity="0.2" fill="#FFFFFF" points="944,177 943,177 934,177 934,176 943,176 943,161 928,161 928,175.5 928,176.5 
			928,186 927,186 927,177 912,177 912,192 927,192 928,192 943,192 943,183 944,183 944,192 959,192 959,177 		"/>
		<polygon opacity="0.1" fill="#FFFFFF" points="592,177 591,177 582,177 582,176 591,176 591,161 576,161 576,175.5 576,176.5 
			576,186 575,186 575,177 560,177 560,192 575,192 576,192 591,192 591,183 592,183 592,192 607,192 607,177 		"/>
		<polygon opacity="0.2" fill="#FFFFFF" points="688,177 688,192 703,192 703,176.5 703,175.5 703,161 694,161 694,160 703,160 
			703,144.5 703,143.5 703,129 688,129 688,144 697,144 697,145 688,145 688,159.5 688,160.5 688,176 697,176 697,177 		"/>
		<polygon opacity="0.2" fill="#FFFFFF" points="704,161 704,176 719,176 719,160.5 719,159.5 719,145 710,145 710,144 719,144 
			719,128.5 719,127.5 719,113 704,113 704,128 713,128 713,129 704,129 704,143.5 704,144.5 704,160 713,160 713,161 		"/>
		<polygon opacity="0.2" fill="#FFFFFF" points="512,177 512,192 527,192 527,176.5 527,175.5 527,161 518,161 518,160 527,160 
			527,144.5 527,143.5 527,129 512,129 512,144 521,144 521,145 512,145 512,159.5 512,160.5 512,176 521,176 521,177 		"/>
		<polygon opacity="0.2" fill="#FFFFFF" points="847,145 832,145 832,160 847,160 848,160 863,160 863,151 864,151 864,160 879,160 
			880,160 895,160 895,145 880,145 880,154 879,154 879,145 864,145 863,145 848,145 848,154 847,154 		"/>
		<polygon opacity="0.2" fill="#FFFFFF" points="847,177 832,177 832,192 847,192 848,192 863,192 863,183 864,183 864,192 879,192 
			880,192 895,192 895,177 880,177 880,186 879,186 879,177 864,177 863,177 848,177 848,186 847,186 		"/>
		<polygon opacity="0.1" fill="#FFFFFF" points="687,176 687,161 672,161 672,170 671,170 671,161 656,161 656,176 666,176 666,177 
			656,177 656,192 671,192 671,183 672,183 672,192 687,192 687,177 678,177 678,176 		"/>
		<polygon opacity="0.1" fill="#FFFFFF" points="863,128 863,113 848,113 848,122 847,122 847,113 832,113 832,128 842,128 842,129 
			832,129 832,144 847,144 847,135 848,135 848,144 863,144 863,129 854,129 854,128 		"/>
		<polygon opacity="0.2" fill="#FFFFFF" points="559,176 559,161 544,161 544,170 543,170 543,161 528,161 528,176 538,176 538,177 
			528,177 528,192 543,192 543,183 544,183 544,192 559,192 559,177 550,177 550,176 		"/>
		<polygon opacity="0.1" fill="#FFFFFF" points="736,161 735,161 720,161 720,176 729,176 729,177 720,177 719,177 704,177 704,192 
			719,192 719,183 720,183 720,192 735,192 735,176.5 735,175.5 735,167 736,167 736,176 751,176 751,161 		"/>
		<polygon opacity="0.2" fill="#FFFFFF" points="656,127.5 656,128.5 656,144 671,144 671,135 672,135 672,143.5 672,144.5 672,160 
			687,160 687,145 678,145 678,144 687,144 687,129 672,129 671,129 662,129 662,128 671,128 671,113 656,113 		"/>
		<polygon opacity="0.2" fill="#FFFFFF" points="783,161 784,161 799,161 799,176 790,176 790,177 799,177 800,177 815,177 815,192 
			800,192 800,183 799,183 799,192 784,192 784,176.5 784,175.5 784,167 783,167 783,176 768,176 768,161 		"/>
		<polygon opacity="0.1" fill="#FFFFFF" points="959,161 960,161 975,161 975,176 966,176 966,177 975,177 976,177 991,177 991,192 
			976,192 976,183 975,183 975,192 960,192 960,176.5 960,175.5 960,167 959,167 959,176 944,176 944,161 		"/>
		<polygon opacity="0.2" fill="#FFFFFF" points="591,143.5 591,144.5 591,160 576,160 576,151 575,151 575,159.5 575,160.5 575,176 
			560,176 560,161 569,161 569,160 560,160 560,145 575,145 576,145 585,145 585,144 576,144 576,129 591,129 		"/>
		<polygon opacity="0.1" fill="#FFFFFF" points="767,127.5 767,128.5 767,144 752,144 752,135 751,135 751,143.5 751,144.5 751,160 
			736,160 736,145 745,145 745,144 736,144 736,129 751,129 752,129 761,129 761,128 752,128 752,113 767,113 		"/>
		<polygon opacity="0.2" fill="#FFFFFF" points="767,160 768,160 783,160 783,145 774,145 774,144 783,144 783,128.5 783,127.5 
			783,113 768,113 768,128 777,128 777,129 768,129 768,143.5 768,144.5 768,154 767,154 767,145 752,145 752,160 		"/>
		<polygon opacity="0.1" fill="#FFFFFF" points="495,192 496,192 511,192 511,177 502,177 502,176 511,176 511,160.5 511,159.5 
			511,145 496,145 496,160 505,160 505,161 496,161 496,175.5 496,176.5 496,186 495,186 495,177 480,177 480,192 		"/>
		<polygon opacity="0.2" fill="#FFFFFF" points="656,145 655,145 640,145 640,160 649,160 649,161 640,161 640,175.5 640,176.5 
			640,192 655,192 655,177 646,177 646,176 655,176 655,160.5 655,159.5 655,151 656,151 656,160 671,160 671,145 		"/>
		<polygon opacity="0.1" fill="#FFFFFF" points="911,176.5 911,175.5 911,161 896,161 896,170 895,170 895,161 880,161 879,161 
			864,161 864,176 879,176 879,167 880,167 880,176 895,176 896,176 905,176 905,177 896,177 896,192 911,192 		"/>
		<polygon opacity="0.2" fill="#FFFFFF" points="816,176.5 816,175.5 816,161 831,161 831,170 832,170 832,161 847,161 848,161 
			863,161 863,176 848,176 848,167 847,167 847,176 832,176 831,176 822,176 822,177 831,177 831,192 816,192 		"/>
		<polygon opacity="0.1" fill="#FFFFFF" points="688,128 687,128 672,128 672,113 681,113 681,112 672,112 672,96.5 672,95.5 
			672,81 687,81 687,96 678,96 678,97 687,97 687,111.5 687,112.5 687,122 688,122 688,113 703,113 703,128 		"/>
		<polygon opacity="0.2" fill="#FFFFFF" points="624,192 623,192 608,192 608,177 617,177 617,176 608,176 608,160.5 608,159.5 
			608,145 623,145 623,160 614,160 614,161 623,161 623,175.5 623,176.5 623,186 624,186 624,177 639,177 639,192 		"/>
		<polygon opacity="0.2" fill="#FFFFFF" points="480,161 479,161 464,161 464,176 473,176 473,177 464,177 463,177 448,177 448,192 
			463,192 463,183 464,183 464,192 479,192 479,176.5 479,175.5 479,167 480,167 480,176 495,176 495,161 		"/>
	</g>
	<g opacity="0.2">
		<polygon fill="#FFFFFF" points="128,161 127,161 118,161 118,160 127,160 127,145 112,145 112,160 112,161 112,170 111,170 
			111,161 96,161 96,176 111,176 112,176 127,176 127,167 128,167 128,176 143,176 143,161 		"/>
		<polygon fill="#FFFFFF" points="288,129 287,129 278,129 278,128 287,128 287,113 272,113 272,128 272,129 272,138 271,138 
			271,129 256,129 256,144 271,144 272,144 287,144 287,135 288,135 288,144 303,144 303,129 		"/>
		<polygon fill="#FFFFFF" points="399,145 399,144 399,135 400,135 400,144 415,144 415,129 400,129 399,129 390,129 390,128 
			399,128 399,113 384,113 384,128 384,129 384,144 393,144 393,145 384,145 384,160 399,160 		"/>
		<polygon opacity="0.5" fill="#FFFFFF" points="432,177 431,177 422,177 422,176 431,176 431,161 416,161 416,176 416,177 416,186 
			415,186 415,177 400,177 400,192 415,192 416,192 431,192 431,183 432,183 432,192 447,192 447,177 		"/>
		<polygon opacity="0.5" fill="#FFFFFF" points="368,145 368,160 383,160 383,145 383,144 383,129 374,129 374,128 383,128 383,113 
			383,112 383,97 368,97 368,112 377,112 377,113 368,113 368,128 368,129 368,144 377,144 377,145 		"/>
		<polygon fill="#FFFFFF" points="304,177 304,192 319,192 319,177 319,176 319,161 310,161 310,160 319,160 319,145 319,144 
			319,129 304,129 304,144 313,144 313,145 304,145 304,160 304,161 304,176 313,176 313,177 		"/>
		<polygon fill="#FFFFFF" points="352,145 352,160 367,160 367,145 367,144 367,129 358,129 358,128 367,128 367,113 367,112 
			367,97 352,97 352,112 361,112 361,113 352,113 352,128 352,129 352,144 361,144 361,145 		"/>
		<polygon fill="#FFFFFF" points="111,177 96,177 96,192 111,192 112,192 127,192 127,183 128,183 128,192 143,192 144,192 159,192 
			159,177 144,177 144,186 143,186 143,177 128,177 127,177 112,177 112,186 111,186 		"/>
		<polygon opacity="0.5" fill="#FFFFFF" points="335,177 320,177 320,192 335,192 336,192 351,192 351,183 352,183 352,192 367,192 
			368,192 383,192 383,177 368,177 368,186 367,186 367,177 352,177 351,177 336,177 336,186 335,186 		"/>
		<polygon opacity="0.5" fill="#FFFFFF" points="191,176 191,161 176,161 176,170 175,170 175,161 160,161 160,176 170,176 170,177 
			160,177 160,192 175,192 175,183 176,183 176,192 191,192 191,177 182,177 182,176 		"/>
		<polygon fill="#FFFFFF" points="351,160 351,145 336,145 336,154 335,154 335,145 320,145 320,160 330,160 330,161 320,161 
			320,176 335,176 335,167 336,167 336,176 351,176 351,161 342,161 342,160 		"/>
		<polygon opacity="0.5" fill="#FFFFFF" points="256,160 256,161 256,176 271,176 271,167 272,167 272,176 272,177 272,192 287,192 
			287,177 278,177 278,176 287,176 287,161 272,161 271,161 262,161 262,160 271,160 271,145 256,145 		"/>
		<polygon fill="#FFFFFF" points="239,161 240,161 255,161 255,176 246,176 246,177 255,177 256,177 271,177 271,192 256,192 
			256,183 255,183 255,192 240,192 240,177 240,176 240,167 239,167 239,176 224,176 224,161 		"/>
		<polygon fill="#FFFFFF" points="431,144 431,145 431,160 416,160 416,151 415,151 415,160 415,161 415,176 400,176 400,161 
			409,161 409,160 400,160 400,145 415,145 416,145 425,145 425,144 416,144 416,129 431,129 		"/>
		<polygon fill="#FFFFFF" points="175,144 175,145 175,160 160,160 160,151 159,151 159,160 159,161 159,176 144,176 144,161 
			153,161 153,160 144,160 144,145 159,145 160,145 169,145 169,144 160,144 160,129 175,129 		"/>
		<polygon fill="#FFFFFF" points="192,176 192,177 192,192 207,192 207,183 208,183 208,192 223,192 224,192 239,192 239,177 
			224,177 224,186 223,186 223,177 208,177 207,177 198,177 198,176 207,176 207,161 192,161 		"/>
		<polygon fill="#FFFFFF" points="79,144 79,129 64,129 64,138 63,138 63,129 48,129 48,144 58,144 58,145 48,145 48,160 63,160 
			63,151 64,151 64,160 79,160 79,145 70,145 70,144 		"/>
		<polygon fill="#FFFFFF" points="64,161 63,161 48,161 48,176 57,176 57,177 48,177 47,177 32,177 32,192 47,192 47,183 48,183 
			48,192 63,192 63,177 63,176 63,167 64,167 64,176 79,176 79,161 		"/>
		<polygon opacity="0.5" fill="#FFFFFF" points="32,161 31,161 16,161 16,176 25,176 25,177 16,177 15,177 0,177 0,192 15,192 
			15,183 16,183 16,192 31,192 31,177 31,176 31,167 32,167 32,176 47,176 47,161 		"/>
		<polygon opacity="0.5" fill="#FFFFFF" points="79,192 80,192 95,192 95,177 86,177 86,176 95,176 95,161 95,160 95,145 80,145 
			80,160 89,160 89,161 80,161 80,176 80,177 80,186 79,186 79,177 64,177 64,192 		"/>
		<polygon opacity="0.5" fill="#FFFFFF" points="224,129 223,129 208,129 208,144 217,144 217,145 208,145 208,160 208,161 208,176 
			223,176 223,161 214,161 214,160 223,160 223,145 223,144 223,135 224,135 224,144 239,144 239,129 		"/>
		<polygon fill="#FFFFFF" points="399,177 399,176 399,161 384,161 384,170 383,170 383,161 368,161 367,161 352,161 352,176 
			367,176 367,167 368,167 368,176 383,176 384,176 393,176 393,177 384,177 384,192 399,192 		"/>
		<polygon fill="#FFFFFF" points="287,145 288,145 303,145 303,160 294,160 294,161 303,161 303,176 303,177 303,192 288,192 
			288,177 297,177 297,176 288,176 288,161 288,160 288,151 287,151 287,160 272,160 272,145 		"/>
		<polygon fill="#FFFFFF" points="192,160 191,160 176,160 176,145 185,145 185,144 176,144 176,129 176,128 176,113 191,113 
			191,128 182,128 182,129 191,129 191,144 191,145 191,154 192,154 192,145 207,145 207,160 		"/>
	</g>
</g>
</svg>
