<?xml version="1.0" encoding="utf-8"?>
<!-- Generator: Adobe Illustrator 18.1.1, SVG Export Plug-In . SVG Version: 6.00 Build 0)  -->
<svg version="1.1" id="Layer_1" xmlns="http://www.w3.org/2000/svg" xmlns:xlink="http://www.w3.org/1999/xlink" x="0px" y="0px"
	 viewBox="0 0 237.5 103.6" enable-background="new 0 0 237.5 103.6" xml:space="preserve">
<g>
	<g>
		<g>
			<path fill="#FFFFFF" d="M78.2,96.1c-2.4,0-3.5-1.3-3.5-3.3c0-3.1,2.2-5.4,5.2-5.4c2.3,0,3.5,1.3,3.5,3.3
				C83.4,93.9,81.2,96.1,78.2,96.1z M79.6,89.5c-1.4,0-2.5,1.3-2.5,2.9c0,1,0.5,1.7,1.5,1.7c1.4,0,2.4-1.2,2.4-2.9
				C81.1,90.2,80.6,89.5,79.6,89.5z"/>
			<path fill="#FFFFFF" d="M84.6,89.6c-0.1-0.1-0.3-0.3-0.3-0.7c0-0.4,0.2-1,0.6-1.2h1.2c0.6-3.7,2.3-5.5,4.8-5.5
				c2,0,2.6,1.3,2.8,1.7c0.3,1-1.3,1.8-2,1.2c-0.2-0.4-0.5-0.9-1.3-0.9c-1,0-1.7,1-2.1,3.5h2.4c0.1,0.1,0.2,0.3,0.2,0.7
				c0,0.5-0.3,1-0.6,1.2h-2.3l-0.7,4.1c-0.7,4.1-1.7,6.4-4.7,6.4c-1.8,0-2.5-1.1-2.8-1.6c-0.1-0.9,0.9-1.5,1.6-1.3
				c0.2,0.4,0.5,0.9,1.3,0.9c1.3,0,1.7-1.3,2.3-4.4l0.7-4.1H84.6z"/>
		</g>
		<g>
			<path fill="#FFFFFF" d="M104.2,84.5c0,0.5,0.2,0.9,0.7,1.3c0.4,0.4,1,0.8,1.7,1.2c0.7,0.4,1.4,0.8,2.2,1.2
				c0.8,0.4,1.5,0.9,2.2,1.5c0.7,0.6,1.2,1.2,1.7,1.9c0.4,0.7,0.7,1.5,0.7,2.5v4.1c0,0.9-0.2,1.7-0.6,2.4c-0.4,0.7-1,1.2-1.6,1.7
				c-0.7,0.4-1.4,0.8-2.3,1c-0.9,0.2-1.7,0.3-2.6,0.3c-0.9,0-1.8-0.1-2.6-0.3c-0.9-0.2-1.6-0.5-2.3-1c-0.7-0.4-1.2-1-1.6-1.7
				c-0.4-0.7-0.6-1.5-0.6-2.4v-3.1h3c0.6,0,1.1,0.2,1.5,0.6c0.3,0.4,0.5,0.9,0.5,1.4v0.7c0,0.4,0.2,0.7,0.7,1c0.4,0.3,1,0.4,1.6,0.4
				c0.6,0,1.1-0.2,1.6-0.5c0.4-0.3,0.6-0.7,0.6-1V95c0-0.8-0.2-1.4-0.7-2c-0.4-0.5-1-1-1.7-1.4c-0.7-0.4-1.4-0.8-2.2-1.1
				c-0.8-0.4-1.5-0.8-2.2-1.3c-0.7-0.5-1.2-1.1-1.7-1.9c-0.4-0.7-0.7-1.7-0.7-2.8v-3c0-1,0.2-1.8,0.6-2.5c0.4-0.7,0.9-1.2,1.5-1.7
				c0.6-0.4,1.3-0.8,2.2-1c0.8-0.2,1.7-0.3,2.6-0.3c0.9,0,1.7,0.1,2.6,0.3c0.8,0.2,1.5,0.6,2.1,1c0.6,0.4,1.1,1,1.5,1.7
				c0.4,0.7,0.5,1.5,0.5,2.4v3H110c-0.6,0-1.1-0.2-1.5-0.5c-0.4-0.4-0.6-0.8-0.6-1.4v-0.8c0-0.5-0.2-0.9-0.6-1.2
				c-0.4-0.3-0.8-0.4-1.3-0.4c-0.5,0-0.9,0.1-1.3,0.4c-0.3,0.3-0.5,0.6-0.5,1V84.5z"/>
			<path fill="#FFFFFF" d="M130.7,76.7c0.2,0.2,0.3,0.6,0.3,1.2v2.5v1.8H129c-0.6,0-1.1-0.3-1.4-0.9c-0.1-0.3-0.2-0.4-0.3-0.5
				c-0.1-0.1-0.4-0.1-0.8-0.1H126c-0.3,0-0.5,0.2-0.5,0.6l-0.1,17.4c0,0.2,0,0.4,0.1,0.5c0.1,0.1,0.2,0.2,0.3,0.3
				c0.2,0.1,0.3,0.3,0.5,0.6c0.2,0.3,0.3,0.6,0.3,1v2.3h-7.3v-2.3c0-0.4,0.1-0.7,0.3-1c0.2-0.3,0.4-0.5,0.6-0.6
				c0.1-0.1,0.2-0.2,0.3-0.3c0.1-0.1,0.1-0.3,0.1-0.5V81.2c0-0.2-0.1-0.3-0.2-0.4c-0.1-0.1-0.3-0.1-0.4-0.1h-0.4
				c-0.1,0-0.3,0-0.5,0.1c-0.2,0.1-0.4,0.3-0.5,0.6c-0.2,0.3-0.4,0.6-0.6,0.7c-0.2,0.1-0.6,0.2-1.1,0.2H115v-2v-2.3
				c0-0.6,0.1-0.9,0.4-1.1c0.3-0.2,0.6-0.3,1-0.3h13.3C130.2,76.4,130.5,76.5,130.7,76.7z"/>
			<path fill="#FFFFFF" d="M147.7,99.2c0.2,0.1,0.4,0.3,0.5,0.6c0.2,0.3,0.3,0.6,0.3,1v2.5h-7.2v-2.1c0-0.4,0.1-0.8,0.3-1.2
				c0.2-0.4,0.3-0.6,0.5-0.7c0.1-0.1,0.2-0.2,0.3-0.3c0.1-0.1,0.1-0.3,0.1-0.5c0-0.2,0-0.4-0.1-0.5c0-0.1-0.1-0.3-0.1-0.4
				c0-0.2-0.1-0.3-0.1-0.4c0-0.2-0.1-0.3-0.3-0.4c-0.1-0.1-0.3-0.1-0.5-0.1h-3.4c-0.2,0-0.4,0-0.5,0.1c-0.1,0-0.2,0.2-0.2,0.4
				c0,0.1,0,0.3-0.1,0.4c0,0.2-0.1,0.3-0.1,0.4c0,0.2-0.1,0.3-0.1,0.5c0,0.2,0,0.4,0.1,0.5c0,0.1,0.1,0.2,0.3,0.3
				c0.2,0.1,0.4,0.4,0.5,0.7c0.2,0.4,0.3,0.8,0.3,1.2v2.1h-7.1v-2.5c0-0.4,0.1-0.7,0.3-1c0.2-0.3,0.4-0.5,0.5-0.6
				c0.1-0.1,0.2-0.2,0.3-0.3c0.1-0.1,0.2-0.3,0.2-0.5c0.7-3.2,1.3-6.1,1.8-8.6c0.2-1.1,0.5-2.1,0.7-3.2c0.2-1,0.4-2,0.6-2.8
				c0.2-0.8,0.3-1.5,0.4-2c0.1-0.5,0.2-0.8,0.2-0.8c0-0.2,0.1-0.4,0.1-0.5c0-0.2-0.1-0.3-0.2-0.3c-0.3-0.1-0.5-0.3-0.6-0.6
				c-0.2-0.3-0.3-0.7-0.3-1.2v-2.1h5.6c0.6,0,1,0.2,1.3,0.5c0.3,0.3,0.5,0.7,0.6,1.1c0,0.1,0.1,0.5,0.2,1.1c0.1,0.6,0.3,1.4,0.5,2.4
				c0.2,1,0.5,2.1,0.7,3.3c0.3,1.2,0.5,2.4,0.8,3.7c0.6,2.9,1.3,6.2,2.2,9.9C147.3,98.8,147.4,99,147.7,99.2z M141.2,92.6
				c0.2,0,0.3,0,0.3-0.1c0,0,0.1-0.1,0-0.3c0,0,0-0.3-0.1-0.8c-0.1-0.5-0.2-1-0.3-1.7c-0.1-0.6-0.2-1.3-0.4-2.1
				c-0.1-0.8-0.3-1.5-0.4-2.1c-0.1-0.6-0.2-1.2-0.3-1.6c-0.1-0.4-0.1-0.7-0.1-0.7c0-0.1,0-0.1-0.1-0.1c-0.1,0-0.1,0-0.1,0.1
				c0,0,0,0.3-0.1,0.7c-0.1,0.4-0.2,1-0.3,1.6c-0.1,0.6-0.2,1.3-0.4,2.1c-0.1,0.7-0.3,1.4-0.4,2.1c-0.1,0.7-0.2,1.2-0.3,1.7
				c-0.1,0.5-0.1,0.7-0.1,0.8c0,0.1,0,0.2,0,0.3c0,0,0.2,0.1,0.3,0.1H141.2z"/>
			<path fill="#FFFFFF" d="M158.3,103.5c-0.9,0-1.8-0.1-2.6-0.3c-0.9-0.2-1.6-0.5-2.3-1c-0.7-0.4-1.2-1-1.6-1.7
				c-0.4-0.7-0.6-1.5-0.6-2.4V81.4c0-0.9,0.2-1.7,0.6-2.4c0.4-0.7,0.9-1.2,1.6-1.7c0.7-0.4,1.4-0.8,2.3-1c0.9-0.2,1.7-0.3,2.6-0.3
				c0.9,0,1.8,0.1,2.6,0.3c0.9,0.2,1.6,0.6,2.3,1c0.7,0.4,1.2,1,1.6,1.7c0.4,0.7,0.6,1.5,0.6,2.4v2.7h-2.7c-0.6,0-1.1-0.2-1.5-0.5
				c-0.4-0.4-0.6-0.8-0.6-1.4v0c0-0.2,0-0.5-0.1-0.7c-0.1-0.2-0.2-0.4-0.3-0.6c-0.2-0.2-0.4-0.3-0.7-0.4c-0.3-0.1-0.7-0.2-1.2-0.2
				c-0.5,0-0.8,0.1-1.1,0.2c-0.3,0.1-0.5,0.3-0.7,0.4c-0.2,0.2-0.3,0.4-0.3,0.6c-0.1,0.2-0.1,0.4-0.1,0.6v15.8c0,0.3,0.2,0.7,0.6,1
				c0.4,0.3,1,0.5,1.6,0.5c0.6,0,1.2-0.1,1.6-0.4c0.5-0.3,0.7-0.6,0.7-1v-0.4c0-0.6,0.2-1,0.5-1.4c0.3-0.4,0.8-0.6,1.5-0.6h2.8v2.7
				c0,0.9-0.2,1.7-0.6,2.4c-0.4,0.7-0.9,1.2-1.6,1.7c-0.7,0.4-1.4,0.8-2.3,1C160.1,103.4,159.2,103.5,158.3,103.5z"/>
			<path fill="#FFFFFF" d="M184.4,99.3c0.3,0.1,0.5,0.3,0.6,0.5c0.2,0.2,0.2,0.5,0.2,1.1v2.5h-1.2h-2.4h-0.4c-0.6,0-1-0.1-1.3-0.3
				c-0.3-0.2-0.6-0.7-0.9-1.5l-3.6-8.6l-1,1.8v3.9c0,0.2,0,0.4,0.1,0.5c0.1,0.1,0.2,0.2,0.3,0.3c0.2,0.1,0.4,0.3,0.6,0.6
				c0.2,0.3,0.3,0.6,0.3,1v2.3h-0.3h-7.1v-1.9v-0.4c0-0.4,0.1-0.7,0.3-1c0.2-0.3,0.4-0.5,0.6-0.6c0.1-0.1,0.2-0.2,0.3-0.3
				c0.1-0.1,0.1-0.3,0.1-0.5v-1.2V81.1c0-0.3,0-0.4-0.1-0.5c-0.1-0.1-0.2-0.2-0.3-0.3c-0.2-0.1-0.4-0.3-0.6-0.6
				c-0.2-0.3-0.3-0.6-0.3-1v-0.4v-1.9v0h7.3v2.3c0,0.4-0.1,0.7-0.3,1c-0.2,0.3-0.4,0.5-0.6,0.6c-0.1,0.1-0.2,0.2-0.3,0.3
				c-0.1,0.1-0.1,0.3-0.1,0.5v5l4.9-8.7c0.1-0.2,0.3-0.3,0.5-0.5c0.1-0.1,0.3-0.2,0.5-0.3c0.2-0.1,0.5-0.2,0.8-0.2h3.1v2.3
				c0,1-0.3,1.6-0.8,1.8c-0.2,0.1-0.4,0.2-0.6,0.3c-0.2,0.1-0.3,0.2-0.4,0.4c0,0.1-0.2,0.4-0.6,1c-0.3,0.6-0.7,1.3-1.2,2
				c-0.4,0.8-0.8,1.5-1.2,2.2c-0.4,0.7-0.6,1.2-0.8,1.5c0,0.1-0.1,0.2-0.1,0.3c0,0.1,0,0.2,0.1,0.4l3.8,9.2c0.1,0.3,0.3,0.5,0.4,0.6
				c0.2,0.2,0.4,0.3,0.6,0.4c0.2,0.1,0.4,0.2,0.6,0.2C184.1,99.2,184.3,99.2,184.4,99.3z"/>
			<path fill="#FFFFFF" d="M194.3,80.7c-0.1,0.1-0.2,0.2-0.2,0.3v6c0,0.2,0.1,0.3,0.2,0.4c0.1,0.1,0.2,0.1,0.4,0.1h4.5
				c0.1,0,0.2,0,0.4,0.1c0.1,0.1,0.2,0.2,0.2,0.4V91c0,0.3-0.2,0.5-0.5,0.5h-4.6c-0.4,0-0.5,0.2-0.5,0.5v6.7c0,0.1,0.1,0.3,0.2,0.4
				c0.1,0.1,0.3,0.1,0.4,0.1h2.9c0.2,0,0.4-0.1,0.5-0.4c0-0.1,0.1-0.3,0.2-0.4c0.1-0.2,0.2-0.3,0.3-0.5c0.1-0.1,0.3-0.3,0.5-0.4
				c0.2-0.1,0.4-0.2,0.7-0.2h2.2v5c0,0.3-0.1,0.5-0.4,0.6c-0.3,0.2-0.5,0.3-0.8,0.3h-2.3h-8.2h-2.2v-2.2c0-0.5,0.1-0.9,0.2-1.2
				c0.1-0.3,0.3-0.5,0.6-0.6c0.3-0.2,0.4-0.4,0.4-0.8V81.1c0-0.4-0.2-0.7-0.5-0.8c-0.2-0.1-0.4-0.3-0.6-0.6
				c-0.1-0.3-0.2-0.6-0.2-1.1v-2.3H201c0.3,0,0.5,0.1,0.7,0.3s0.3,0.4,0.3,0.6v4.8h-2.1c-0.5,0-0.9-0.1-1.2-0.4
				c-0.3-0.2-0.5-0.5-0.6-0.7c-0.2-0.3-0.4-0.4-0.8-0.4h-2.7C194.5,80.6,194.4,80.6,194.3,80.7z"/>
			<path fill="#FFFFFF" d="M219.9,99.6c0.2,0.1,0.3,0.3,0.5,0.6c0.2,0.3,0.3,0.6,0.3,1v2.3h-4c-0.3,0-0.6-0.1-0.9-0.3
				c-0.3-0.2-0.5-0.4-0.7-0.7c-0.2-0.3-0.3-0.6-0.5-0.9c-0.1-0.3-0.2-0.6-0.2-0.9v-6.3c0-0.4-0.1-0.8-0.2-1
				c-0.1-0.3-0.3-0.5-0.5-0.6c-0.2-0.1-0.4-0.2-0.6-0.3c-0.2,0-0.4-0.1-0.6-0.1h-0.8c-0.4,0-0.7,0.1-0.8,0.1
				c-0.1,0.1-0.2,0.2-0.2,0.5v5.7c0,0.2,0.1,0.4,0.3,0.6c0.2,0.2,0.4,0.3,0.5,0.4c0.2,0.2,0.3,0.4,0.4,0.6c0,0.2,0.1,0.5,0.1,1v2.1
				H205v-1.9c0-0.4,0-0.8,0.1-1.1c0.1-0.3,0.2-0.5,0.4-0.6c0.1-0.1,0.2-0.2,0.4-0.4c0.1-0.2,0.2-0.4,0.2-0.6V81.6c0-0.2,0-0.4,0-0.6
				c0-0.2-0.1-0.4-0.2-0.4c-0.2-0.1-0.4-0.3-0.5-0.6c-0.2-0.3-0.3-0.6-0.3-1.1v-2.3h8.9c1.8,0,3.2,0.6,4.1,1.7
				c0.9,1.1,1.4,2.6,1.4,4.3v3.2c0,0.8-0.1,1.5-0.3,2.1c-0.2,0.6-0.5,1.2-1,1.6c0,0-0.1,0.1-0.1,0.2c0,0.1,0,0.2,0.1,0.3
				c0.5,0.4,0.9,0.8,1,1.3c0.2,0.5,0.3,1.1,0.3,2v5.5c0,0.2,0,0.4,0.1,0.5C219.7,99.4,219.8,99.5,219.9,99.6z M214.7,83
				c0-0.8-0.1-1.4-0.3-1.8c-0.2-0.3-0.7-0.5-1.5-0.5h-1.5c-0.2,0-0.4,0.2-0.4,0.6v6.5c0,0.2,0,0.4,0.1,0.5c0.1,0.1,0.3,0.1,0.6,0.1
				h0.8c0.6,0,1.1-0.1,1.5-0.3c0.4-0.2,0.6-0.7,0.6-1.6V83z"/>
			<path fill="#FFFFFF" d="M228.5,84.5c0,0.5,0.2,0.9,0.7,1.3c0.4,0.4,1,0.8,1.7,1.2c0.7,0.4,1.4,0.8,2.2,1.2
				c0.8,0.4,1.5,0.9,2.2,1.5c0.7,0.6,1.2,1.2,1.7,1.9c0.4,0.7,0.7,1.5,0.7,2.5v4.1c0,0.9-0.2,1.7-0.6,2.4c-0.4,0.7-1,1.2-1.6,1.7
				c-0.7,0.4-1.4,0.8-2.3,1c-0.9,0.2-1.7,0.3-2.6,0.3c-0.9,0-1.8-0.1-2.6-0.3c-0.9-0.2-1.6-0.5-2.3-1c-0.7-0.4-1.2-1-1.6-1.7
				c-0.4-0.7-0.6-1.5-0.6-2.4v-3.1h3c0.6,0,1.1,0.2,1.5,0.6c0.3,0.4,0.5,0.9,0.5,1.4v0.7c0,0.4,0.2,0.7,0.7,1c0.4,0.3,1,0.4,1.6,0.4
				c0.6,0,1.1-0.2,1.6-0.5c0.4-0.3,0.6-0.7,0.6-1V95c0-0.8-0.2-1.4-0.7-2c-0.4-0.5-1-1-1.7-1.4c-0.7-0.4-1.4-0.8-2.2-1.1
				c-0.8-0.4-1.5-0.8-2.2-1.3c-0.7-0.5-1.2-1.1-1.7-1.9c-0.4-0.7-0.7-1.7-0.7-2.8v-3c0-1,0.2-1.8,0.6-2.5c0.4-0.7,0.9-1.2,1.5-1.7
				c0.6-0.4,1.3-0.8,2.2-1c0.8-0.2,1.7-0.3,2.6-0.3c0.9,0,1.7,0.1,2.6,0.3c0.8,0.2,1.5,0.6,2.1,1c0.6,0.4,1.1,1,1.5,1.7
				c0.4,0.7,0.5,1.5,0.5,2.4v3h-2.7c-0.6,0-1.1-0.2-1.5-0.5c-0.4-0.4-0.6-0.8-0.6-1.4v-0.8c0-0.5-0.2-0.9-0.6-1.2
				c-0.4-0.3-0.8-0.4-1.3-0.4c-0.5,0-0.9,0.1-1.3,0.4c-0.3,0.3-0.5,0.6-0.5,1V84.5z"/>
		</g>
		<g>
			<path fill="#FFFFFF" d="M16.1,99.3c0.3,0.1,0.5,0.3,0.6,0.5c0.2,0.2,0.2,0.5,0.2,1.1v2.5h-1.2h-2.4H13c-0.6,0-1-0.1-1.3-0.3
				c-0.3-0.2-0.6-0.7-0.9-1.5L7.1,93l-1,1.8v3.9c0,0.2,0,0.4,0.1,0.5c0.1,0.1,0.2,0.2,0.3,0.3c0.2,0.1,0.4,0.3,0.6,0.6
				c0.2,0.3,0.3,0.6,0.3,1v2.3H7.1H0v-1.9v-0.4c0-0.4,0.1-0.7,0.3-1c0.2-0.3,0.4-0.5,0.6-0.6c0.1-0.1,0.2-0.2,0.3-0.3
				c0.1-0.1,0.1-0.3,0.1-0.5v-1.2V81.1c0-0.3,0-0.4-0.1-0.5c-0.1-0.1-0.2-0.2-0.3-0.3c-0.2-0.1-0.4-0.3-0.6-0.6
				c-0.2-0.3-0.3-0.6-0.3-1v-0.4v-1.9v0h7.3v2.3c0,0.4-0.1,0.7-0.3,1c-0.2,0.3-0.4,0.5-0.6,0.6c-0.1,0.1-0.2,0.2-0.3,0.3
				c-0.1,0.1-0.1,0.3-0.1,0.5v5l4.9-8.7c0.1-0.2,0.3-0.3,0.5-0.5c0.1-0.1,0.3-0.2,0.5-0.3c0.2-0.1,0.5-0.2,0.8-0.2h3.1v2.3
				c0,1-0.3,1.6-0.8,1.8c-0.2,0.1-0.4,0.2-0.6,0.3c-0.2,0.1-0.3,0.2-0.4,0.4c0,0.1-0.2,0.4-0.6,1c-0.3,0.6-0.7,1.3-1.2,2
				c-0.4,0.8-0.8,1.5-1.2,2.2c-0.4,0.7-0.6,1.2-0.8,1.5c0,0.1-0.1,0.2-0.1,0.3c0,0.1,0,0.2,0.1,0.4l3.8,9.2c0.1,0.3,0.3,0.5,0.5,0.6
				c0.2,0.2,0.4,0.3,0.6,0.4c0.2,0.1,0.4,0.2,0.6,0.2C15.9,99.2,16,99.2,16.1,99.3z"/>
			<path fill="#FFFFFF" d="M26.4,99.2c0.1,0.1,0.2,0.2,0.3,0.3c0.2,0.1,0.4,0.3,0.6,0.6c0.2,0.3,0.3,0.6,0.3,1v2.3h-7.4v-2.3
				c0-0.4,0.1-0.7,0.3-1c0.2-0.3,0.4-0.5,0.6-0.6c0.1-0.1,0.2-0.2,0.3-0.3c0.1-0.1,0.1-0.3,0.1-0.5V81.1v0c0-0.2,0-0.4-0.1-0.5
				c-0.1-0.1-0.2-0.2-0.3-0.3c-0.2-0.1-0.4-0.3-0.6-0.6c-0.2-0.3-0.3-0.6-0.3-1v-2.3h7.4v2.3c0,0.4-0.1,0.7-0.3,1
				c-0.2,0.3-0.4,0.5-0.6,0.6c-0.1,0.1-0.2,0.2-0.3,0.3c-0.1,0.1-0.1,0.3-0.1,0.5v0v17.5C26.2,98.9,26.3,99.1,26.4,99.2z"/>
			<path fill="#FFFFFF" d="M49,76.4v2.4c0,0.4-0.1,0.7-0.3,1c-0.2,0.3-0.4,0.4-0.6,0.6c-0.1,0-0.1,0.1-0.2,0.2
				c-0.1,0.1-0.1,0.2-0.1,0.4v21.3c0,0.4-0.1,0.7-0.2,0.8c-0.2,0.1-0.4,0.2-0.6,0.2h-2.2c-0.7,0-1.1-0.3-1.4-0.9
				c-0.1-0.1-0.3-0.6-0.6-1.3c-0.3-0.7-0.7-1.6-1.1-2.6c-0.4-1-0.9-2.1-1.4-3.2c-0.5-1.1-0.9-2.2-1.3-3.2c-0.4-1-0.8-1.8-1-2.4
				c-0.3-0.7-0.4-1-0.4-1c0,0,0,0,0,0c0,0,0,0.1,0,0.3v9.7c0,0.2,0,0.4,0.1,0.5c0.1,0.1,0.2,0.2,0.3,0.3c0.2,0.1,0.3,0.3,0.5,0.6
				c0.2,0.3,0.3,0.6,0.3,1v2.4h-7.2v-2.4c0-0.4,0.1-0.7,0.3-1c0.2-0.3,0.4-0.4,0.6-0.6c0.1-0.1,0.1-0.1,0.2-0.2
				c0.1-0.1,0.1-0.2,0.1-0.4v-18c-0.2-0.1-0.5-0.2-0.6-0.4c-0.2-0.1-0.3-0.3-0.4-0.6c-0.1-0.3-0.2-0.6-0.2-1v-2.4h5
				c0.3,0,0.5,0.1,0.8,0.4c0.2,0.3,0.4,0.6,0.4,0.8c0,0.2,0.2,0.6,0.5,1.2c0.3,0.7,0.6,1.5,1,2.4c0.4,0.9,0.8,1.9,1.2,3
				c0.4,1.1,0.9,2.1,1.2,3c0.4,0.9,0.7,1.8,1,2.4c0.3,0.7,0.5,1.1,0.5,1.3c0,0,0,0,0.1,0c0,0,0-0.1,0-0.2v-9.7c0-0.2,0-0.4-0.1-0.5
				c-0.1-0.1-0.2-0.2-0.3-0.3c-0.2-0.1-0.3-0.3-0.5-0.6c-0.2-0.3-0.3-0.6-0.3-1v-2.4H49z"/>
			<path fill="#FFFFFF" d="M66.6,103c0,0.2-0.1,0.4-0.4,0.4h-1.1c-0.2,0-0.3-0.1-0.4-0.3c-0.1-0.2-0.3-0.3-0.4-0.4
				c-0.2-0.1-0.3-0.1-0.5-0.1c-0.2,0-0.3,0-0.5,0.1c-0.2,0-0.3,0.1-0.4,0.1c-1,0.5-2.2,0.8-3.7,0.8c-1,0-1.9-0.1-2.8-0.3
				c-0.9-0.2-1.6-0.5-2.2-1c-0.6-0.4-1.1-1-1.5-1.7c-0.4-0.7-0.6-1.5-0.6-2.4V81.4c0-1.8,0.6-3.2,1.8-4.1c1.2-0.9,2.9-1.3,5.2-1.3
				c2.2,0,4,0.4,5.3,1.4c1.3,0.9,2,2.3,2,4.1v2.4h-3.2c-0.7,0-1.2-0.1-1.4-0.4c-0.3-0.3-0.4-0.7-0.4-1.2v0c0-0.7-0.2-1.2-0.6-1.5
				c-0.4-0.3-1-0.5-1.6-0.5c-0.7,0-1.2,0.2-1.6,0.5c-0.4,0.3-0.6,0.9-0.6,1.7v14.3c0,1,0.2,1.6,0.7,2.1c0.4,0.4,1,0.6,1.6,0.6
				c0.7,0,1.2-0.2,1.7-0.6c0.4-0.4,0.7-1,0.7-1.9v-3c0-0.3-0.1-0.5-0.2-0.6c-0.1-0.1-0.3-0.3-0.5-0.4c-0.4-0.2-0.6-1-0.6-2.3v-1.3h5
				c0.4,0,0.6,0.1,0.8,0.3c0.2,0.2,0.3,0.5,0.3,0.9V103z"/>
		</g>
	</g>
	<g>
		<path fill="#FFC518" d="M90.3,36h11.8v12h-12v-6.7l0,0v6.6v0.8V60h-12V48h6.4l0,0h-6.4V36.6v-0.8V24h12v12h-7.6l0,0h7H90.3z
			 M151.1,36.2v0.8v6.3l0,0V36h-12v12h10.8h0.8h6.9l0,0h-6.4v12h11V48.9v-0.8V36h-6.6l0,0h6.6V24h-11V36.2z M125.1,12h-6.6l0,0h7.6
			V0h-12v11.8v0.8v6.7l0,0V12h-12v12h11.1h0.8h12.2v-6.7l0,0V24h12V12h-12.2H125.1z M114.1,48v0.8V60h12V48h-7.6l0,0h7.6V36h-12V48z
			 M67.1,13v11h11V13H67.1z M162.1,13v11h12V13H162.1z"/>
	</g>
</g>
</svg>
